<svg xmlns="http://www.w3.org/2000/svg" version="1.1" viewBox="0 0 1280 511"><path d="M45 101c46.034-.017 92.067-.033 138.1-.042h2.064a1454019.866 1454019.866 0 0 1 66.14-.013h2.188c23.42-.005 46.84-.012 70.259-.021a234895.3 234895.3 0 0 1 82.35-.019h2.024c10.775-.001 21.55-.006 32.325-.012 10.819-.006 21.638-.008 32.457-.007 5.867.001 11.734 0 17.601-.005 5.362-.005 10.724-.005 16.086-.002 1.95 0 3.898 0 5.847-.004 2.63-.004 5.262-.002 7.893.002l2.34-.008c5.212.017 5.212.017 6.326 1.131a74.06 74.06 0 0 1 .126 4.665l.008 3.076-.007 3.42.005 3.601c.003 3.314.002 6.628-.001 9.941-.003 3.568 0 7.136.004 10.704.004 6.995.003 13.99 0 20.986-.002 5.683-.002 11.365-.001 17.048v2.446l.001 4.919c.003 15.392 0 30.785-.006 46.178-.004 13.222-.003 26.445.001 39.667a83799.193 83799.193 0 0 1 .003 53.344c0 5.68 0 11.359.003 17.038.003 6.916.002 13.832-.003 20.748a5347.45 5347.45 0 0 0 0 10.597c.003 3.82-.001 7.64-.006 11.461l.007 3.42-.008 3.076v2.676C529 393 529 393 528 394c-2.559.099-5.091.132-7.65.123l-2.47.004c-2.766.002-5.533-.002-8.299-.007l-5.967.003c-5.493.002-10.986-.002-16.48-.007-5.913-.004-11.827-.003-17.74-.002-10.924 0-21.848-.003-32.772-.01-10.09-.005-20.18-.008-30.269-.01H394.15c-24.052-.002-48.104-.01-72.157-.019-23.371-.009-46.743-.016-70.114-.02h-2.182a2121102.022 2121102.022 0 0 0-67.934-.013c-45.254-.01-90.508-.025-135.762-.042-1.83-3.134-2.246-5.394-2.23-9.006l-.002-3.074.03-3.373.007-3.586c.008-3.286.026-6.572.047-9.858.021-3.543.03-7.087.041-10.63.02-6.14.048-12.278.08-18.418.048-8.876.084-17.752.117-26.628.054-14.401.117-28.802.186-43.203.067-13.99.13-27.98.187-41.97l.01-2.612.053-12.976c.145-35.889.305-71.777.474-107.666Z" fill="#212F5F"/><path d="M212.75 196.688c16.259 12.75 23.616 27.483 31.5 46.062l2.14 4.98c.689 1.606 1.376 3.211 2.063 4.817l.947 2.213a282.555 282.555 0 0 1 4.858 12.287c1.222 3.216 2.585 6.368 3.957 9.523l.9 2.075a2785.68 2785.68 0 0 0 1.873 4.3c.95 2.18 1.89 4.361 2.83 6.543l1.834 4.207.837 1.952c1.802 4.094 4.024 7.647 6.511 11.353v2c3.79 1.186 7.484 1.238 11.438 1.313l3.933.113c4.303-.505 5.695-1.276 8.629-4.426 1.55-2.386 2.788-4.866 4-7.438l1.049-2.16c2.488-5.208 4.615-10.504 6.607-15.922 1.922-4.978 4.114-9.826 6.315-14.687 2.338-5.178 4.545-10.401 6.721-15.65a1191.784 1191.784 0 0 1 6.683-15.706l1.344-3.17c8.198-18.868 20.909-33.937 40.18-42.134 18.874-6.894 38.904-7.399 57.585.703C434.525 193.14 441.012 197.01 447 202c-.482 4.722-2.697 7.7-5.563 11.313l-1.287 1.666A528.907 528.907 0 0 1 437 219c-3.135-1.443-5.696-3.227-8.438-5.313-13.623-9.396-28.483-11.168-44.74-8.303-11.077 2.767-21.172 10.22-27.18 19.84-6.605 11.164-11.383 23.286-16.442 35.199a3818.679 3818.679 0 0 1-4.228 9.901c-5.402 12.597-5.402 12.597-10.703 25.237-.736 1.773-1.482 3.542-2.227 5.311a352.161 352.161 0 0 0-2.406 5.847c-4.227 9.927-12.14 19.035-22.171 23.379-9.208 2.398-22.627 2.991-31.34-1.16-2.16-1.391-2.16-1.391-4.125-2.938l-2.184-1.61c-7.377-5.901-11.065-13.377-14.316-22.077-3.344-8.653-7.042-17.117-10.875-25.563-4.177-9.21-8.22-18.457-12.063-27.813C215.724 229.988 208.663 215.4 189 207c-10.97-3.974-26.99-4.113-37.684.727L149 209l-2.66 1.46c-4.581 2.66-8.93 5.6-13.34 8.54l-11-14c4.07-8.142 13.768-13.122 22.145-16.129A255.666 255.666 0 0 1 154 186l2.305-.691c18.518-4.997 40.862.561 56.445 11.379Z" fill="#E3E3E4"/><path d="M1065.813 127.688c1.064.005 2.128.01 3.225.017 17.823.276 32.59 6.66 45.114 19.502 14.36 16.62 15.918 35.69 14.848 56.793-1.36 13.516-8.64 28.079-19 37-7.308 5.536-15.19 10.316-24 13l-2.133.676C1065.03 259.5 1045.5 255.58 1029 246c-14.948-9.26-22.044-24.524-26-41-2.827-16.813-.523-35.145 8.75-49.75A125.21 125.21 0 0 1 1015 151l1.996-2.523c12.665-15.035 29.638-20.895 48.817-20.79Zm-25.989 36.902c-4.744 6.268-8.535 13.456-8.824 21.41l-.148 2.445c-.414 11.172 2.114 21.698 9.148 30.555 7.69 7.676 15.279 10.245 26 10.375 10.023-.11 17.692-2.298 25-9.375 7.095-8.524 9.566-17.423 9.438-28.375l-.03-2.802c-.293-11.284-3.126-18.51-11.025-26.721-9.116-8.04-19.563-7.705-31.03-7.272-7.805.565-13.31 4.096-18.529 9.76Zm111.551-36.527c4.605 1.644 7.42 4.641 10.508 8.302 5.242 6.028 10.955 11.597 16.613 17.229l3.602 3.598c3.136 3.132 6.275 6.261 9.415 9.39 3.78 3.767 7.555 7.538 11.332 11.309 5.715 5.706 11.436 11.407 17.155 17.109l1-63c3.67-1.835 4.797-2.255 8.625-2.266l2.64-.007 2.735.023 2.734-.023 2.641.007 2.398.007c2.465.287 4.05 1.109 6.227 2.259.047 15.742.082 31.484.104 47.226.01 7.309.024 14.617.047 21.926.02 6.37.033 12.738.037 19.107.003 3.374.009 6.747.023 10.12.015 3.763.017 7.525.016 11.287l.022 3.406-.008 3.094.005 2.698C1249 253 1249 253 1247 255c-3.313 0-3.313 0-7-1-2.438-2.625-2.438-2.625-3.629-4.262-1.575-1.996-3.31-3.529-5.246-5.175-5.081-4.348-9.77-8.929-14.09-14.036-5.048-5.796-10.569-11.13-16.035-16.527-12.175-12.02-12.175-12.02-17.284-18.05-1.737-1.974-3.547-3.83-5.415-5.68l-1.882-1.868L1175 187l-.025 2.416a8429.23 8429.23 0 0 1-.263 22.514c-.05 3.858-.096 7.717-.134 11.575-.037 3.722-.083 7.444-.136 11.166a871.658 871.658 0 0 0-.045 4.265 846.218 846.218 0 0 1-.078 5.962l-.04 3.432C1174 251 1174 251 1172 253c-2.522.227-2.522.227-5.664.195l-3.399-.02-3.562-.05-3.586-.027c-2.93-.024-5.86-.057-8.789-.098-1.224-2.448-1.131-4.039-1.14-6.776l-.018-3.055-.003-3.364-.015-3.533c-.015-3.87-.022-7.741-.027-11.612l-.013-6.01c-.012-5.582-.02-11.165-.023-16.747a6398.5 6398.5 0 0 0-.05-21.674c-.022-5.581-.033-11.163-.034-16.744-.001-3.335-.008-6.67-.025-10.005-.017-3.719-.015-7.437-.008-11.156l-.028-3.358c.005-1.01.01-2.021.017-3.063l-.005-2.665c.595-3.582 2.07-5.272 5.747-5.175Zm-478.79 1.662 2.815-.029 3.05.003 3.167-.013c2.222-.006 4.444-.006 6.665-.002 3.347.003 6.693-.02 10.04-.045 31.166-.094 31.166-.094 44.678 8.361l2.75 1.687c9.49 9.753 11.723 21.257 11.602 34.342-.315 11.029-3.454 20.958-11.356 29.014-11.574 9.71-24.998 10.14-39.434 10.082l-2.966.012-2.842-.004-2.553-.004C696 213 696 213 693 212l.016 3.656c.018 4.46.03 8.92.039 13.379.005 1.933.012 3.866.02 5.8.013 2.772.018 5.545.023 8.317l.015 2.636c0 2.071-.05 4.142-.113 6.212-1.774 1.774-4.35 1.13-6.75 1.133l-3.531.004-3.719-.012-3.719.012-3.531-.004-3.266-.004C666 253 666 253 665 252a74.638 74.638 0 0 1-.14-4.662l-.018-3.056-.003-3.38-.015-3.537c-.012-3.21-.02-6.421-.024-9.632l-.012-6.012c-.013-6.264-.023-12.528-.027-18.792-.004-7.242-.022-14.484-.05-21.726-.022-5.59-.033-11.18-.034-16.772-.001-3.342-.007-6.684-.025-10.027a1735.08 1735.08 0 0 1-.008-11.177l-.028-3.374c.005-1.01.01-2.022.017-3.064l-.005-2.672L665 132c3.169-2.113 3.957-2.254 7.585-2.275ZM693 156v31l11.062.187 3.446.083c7.164.059 12.226-.52 17.867-5.27 3.872-4.765 3.164-11.183 2.625-17-1.999-4.557-4.155-6.53-8.746-8.405-4.792-1.266-9.774-.895-14.692-.783L693 156Zm292.687-15.733c7.835 6.566 7.835 6.566 8.875 11.284-.816 3.556-2.576 4.437-5.562 6.449l-3.035 2.059L983 162l-2.371 1.66c-5 3.394-5 3.394-7.59 3.172-3.299-1.346-5.67-3.721-8.332-6.043-6.538-4.32-13.439-5.327-21.145-5.226l-2.52.027c-8.8.248-14.878 2.109-21.417 8.16-8.165 8.906-10.087 19.075-9.879 30.898.823 10.864 4.007 19.042 12.254 26.352 9.432 6.757 18.56 8.091 30 7 7.696-1.498 12.587-4.831 17.93-10.488C972 216 972 216 974.387 216.035c7.641 2.821 14.56 8.584 20.613 13.965-.824 6.278-4.274 9.082-9 13-16.786 12.186-35.478 14.898-55.707 12.574-16.25-3.266-30.517-12.73-39.988-26.347-10.33-17.628-12.984-37.31-8.305-57.227 3.058-9.327 7.331-17.741 14-25l1.504-1.812c21.17-23.77 63.885-23.17 88.183-4.921Z" fill="#000"/><path d="m171.313 170.688 3.185-.05c22.237-.013 42.875 9.988 58.502 25.362l2.344 2.305c10.943 11.43 16.538 25.644 22.722 39.957A848.938 848.938 0 0 0 281 287a3619.91 3619.91 0 0 1 4 8h2l.747-1.802a4319.775 4319.775 0 0 1 18.65-44.284c1.37-3.203 2.734-6.408 4.1-9.613 12.035-28.186 12.035-28.186 17.565-34.738l2.075-2.461c2.205-2.487 4.426-4.839 6.863-7.102l2.035-2.016c9.627-9.204 21.491-16.117 34.402-19.609l2.622-.727c13.429-2.96 29.662-3.348 42.941.352l2.828.777C437.804 178.65 452.913 187.33 464 200v2l-2.773.402-3.602.536-3.586.527c-2.946.37-2.946.37-5.039 1.535l-.617-2.223c-1.777-3.568-4.213-5.179-7.508-7.214-.612-.387-1.225-.773-1.856-1.17-6.93-4.199-14.335-6.913-22.019-9.393l-3.262-1.133c-19.251-4.466-40.074-.096-56.738 10.133-3.515 2.482-6.784 5.143-10 8l-1.93 1.68c-9.03 8.388-13.915 19.777-18.757 30.882-.56 1.263-1.12 2.526-1.682 3.788-2.616 5.905-5.134 11.837-7.502 17.846-2.411 5.99-4.97 11.917-7.51 17.853-.988 2.313-1.972 4.628-2.955 6.943C295.997 306.015 295.997 306.015 291 309c-3.277.504-3.277.504-6.938.563l-3.652.128c-3.689-.748-5.048-1.7-7.236-4.735-2.39-3.982-4.292-8.153-6.174-12.394l-1.42-3.148c-6.674-14.926-12.891-30.056-19.13-45.167a4047.257 4047.257 0 0 0-4.387-10.56l-1.286-3.14C234.213 214.835 224.823 201.842 210 193l-2.18-1.355c-16.93-9.52-38.37-11.639-57.01-6.623-9.897 3.016-19.345 7.459-26.935 14.54-3.09 2.714-4.426 3.404-8.594 3.715-3.484-.247-6.847-.644-10.281-1.277v-2h2l.672-1.703C115.534 184.7 135.706 176.927 150 173l2.018-.564c6.43-1.633 12.685-1.769 19.294-1.749Z" fill="#AEB2C3"/><path d="m784.563 130.125 2.092.029c1.974.104 1.974.104 5.345.846 2.903 3.926 4.463 8.474 6.168 13.012a4811.79 4811.79 0 0 0 1.857 4.849l.976 2.552c1.668 4.32 3.39 8.62 5.112 12.919l1.044 2.609 3.155 7.871 2.167 5.409 3.936 9.825.833 2.09c.637 1.579 1.3 3.148 1.968 4.714C820 199 820 199 820 202h2l.285-2.453c.88-4.366 2.445-8.197 4.153-12.297a4264.63 4264.63 0 0 0 2.18-5.348l1.17-2.88c2.156-5.378 4.209-10.796 6.274-16.21 2.923-7.627 5.86-15.246 8.938-22.812l.844-2.102c1.14-2.768 2.017-4.759 4.156-6.898 8.871-2.446 18.985-1.14 28 0 1.394 3.573.898 5.759-.563 9.14a379.381 379.381 0 0 1-2.437 5.11c-.925 1.968-1.85 3.937-2.773 5.906l-1.554 3.281c-2.829 6.025-5.57 12.089-8.317 18.15-.98 2.16-1.961 4.32-2.943 6.479a2505.436 2505.436 0 0 0-11.702 26.082c-1.716 3.882-3.479 7.742-5.239 11.604a1921.3 1921.3 0 0 0-4.17 9.276 4294.117 4294.117 0 0 1-3.923 8.736c-.675 1.504-1.348 3.009-2.019 4.515-.98 2.201-1.97 4.399-2.962 6.596-.297.672-.593 1.344-.9 2.036-2.76 6.076-2.76 6.076-5.498 8.089-2.438.063-2.438.063-5-1-3.818-4.925-6.015-10.393-8.375-16.125-2.893-6.896-5.893-13.64-9.309-20.293-3.071-6.024-5.747-12.224-8.382-18.45l-1.15-2.706a1111.16 1111.16 0 0 1-2.223-5.287c-2.375-5.617-4.995-11.068-7.749-16.509-3.41-6.763-6.6-13.623-9.749-20.51a852.758 852.758 0 0 0-2.039-4.413c-1.005-2.16-1.998-4.325-2.989-6.492l-.928-1.976c-1.596-3.537-2.572-6.345-2.107-10.239 3.975-3.975 16.053-2.08 21.563-1.875Z" fill="#000"/><path d="M45 101h483l1 3-482-1v288h481v3H46c-1.904-3.807-2.248-4.993-2.23-9.006l-.002-3.075.03-3.372.007-3.577c.008-3.285.026-6.57.047-9.854.022-3.594.031-7.188.042-10.782.023-6.978.057-13.957.094-20.935.042-8.07.072-16.141.101-24.212.084-21.312.186-42.625.286-63.937L45 101Z" fill="#14204B"/><path d="M435 283c4.133 1.425 7.126 3.442 10.563 6.125 5.257 4.043 10.63 7.69 16.234 11.246L464 302v2a259.504 259.504 0 0 1-5 3 269.67 269.67 0 0 0-5.688 4.813C435.6 326.755 414.13 333.658 391 332c-20.433-2.102-36-10.63-52-23 .575-4.786 1.982-8.538 4.063-12.875l1.66-3.492L346 290l2 4h3v2l1.777.332c2.476.744 3.798 1.72 5.786 3.356C373.106 310.877 388.885 314.954 407 313c11.707-1.958 22.494-6.669 31.703-14.215C441 297 441 297 443 297v-2c-3.875 2.143-7.524 4.361-11.125 6.938-9.93 6.721-20.423 9.245-32.188 9.125l-2.533-.014c-2.051-.012-4.103-.03-6.154-.049v-1l3.227-.297c15.063-1.498 32.797-4.115 43.718-15.781L439 292c-.71-2.734-.71-2.734-2-5-3.171 1.46-5.78 3.276-8.563 5.375-5.071 3.592-10.328 6.298-16.437 7.625-2.32-.406-2.32-.406-4-1l3.148-1.25c9.077-3.718 16.811-7.71 23.852-14.75Zm-301 0-4 10c13.131 10.019 25.973 15.156 42.438 15.625l3.373.117c2.73.094 5.459.18 8.189.258-6.758 4.506-18.532 2.833-26.326 1.646C147.158 308.42 138.656 303.162 130 297l-3-2c9.479 10.053 23.614 17.727 37.637 18.3 18.307.217 35.275-3.366 49.05-16.238l2.2-2.277c2.397-2.025 4.03-2.445 7.113-2.785 4.157 4.78 7 10.681 7 17a48.126 48.126 0 0 1-5.625 4.813l-1.763 1.322c-6.144 4.472-12.676 7.761-19.612 10.865l-2.648 1.246c-17.046 7.53-39.174 6.727-56.493.652C130.63 322.64 118.623 315.61 109 305v-2l-3-1c25.146-19 25.146-19 28-19Z" fill="#E3E3E3"/><path d="M1238.625 294.25c3.24 1.87 5.989 3.822 8.375 6.75l2-7c1.875-.625 1.875-.625 4-1 2.632 2.632 2.258 3.812 2.275 7.484l.029 3.482-.003 3.784.013 3.888c.007 2.724.007 5.447.002 8.171-.006 3.465.01 6.93.034 10.395.018 3.328.015 6.656.013 9.983l.028 3.736c-.054 10.121-1.148 18.893-8.383 26.386-6.321 5.324-13.87 6.943-22.008 6.691-9.61-1.156-15.57-4.625-21.668-12.023-1.755-2.605-2.057-4.878-2.332-7.977 1-1 1-1 3.75-1.563 3.25.563 3.25.563 4.547 2.243a506.772 506.772 0 0 1 2.422 4.343c2.348 3.623 5.736 4.541 9.718 5.664 7.075.863 13.994.233 20.563-2.687 1.298-1.847 1.298-1.847 2-4l1.625-3.625c1.791-4.77 1.653-9.345 1.375-14.375l-1.285 1.207c-7.741 6.992-13.537 8.447-23.985 8.2-7.333-.8-12.498-3.795-17.605-9.032-5.182-6.517-7.907-14.36-7.508-22.7 1.536-10.738 4.808-18.377 13.383-24.988 8.746-4.92 19.47-5.852 28.625-1.437Zm-29.29 12.512c-3.718 5.36-5.72 11.867-5.144 18.406 1.257 5.855 3.87 10.894 8.121 15.144 6.4 4.019 13.483 4.663 20.793 3.293 5.939-1.78 9.425-5.598 12.895-10.605 3.082-6.163 2.852-13.208.875-19.688C1243.16 306.75 1239.53 302.1 1232 300c-8.536-1.169-16.55.289-22.664 6.762Z" fill="#000"/><path d="M719.234 277.355C725.668 281.867 731.11 287.611 734 295c.188 2.875.188 2.875 0 5-3.063.625-3.063.625-7 0-2.066-2.338-3.646-4.82-5.316-7.453-4.133-6.252-9.976-9.22-17.121-11.235-9.812-1.196-18.347.03-26.485 5.848-5.46 4.834-9.495 11.516-10.297 18.844-.599 11.14.142 19.823 6.407 29.308 6.75 6.45 14.405 9.245 23.625 10 8.12-.255 16.28-2.574 22.187-8.312 3.152-3.665 5.463-7.388 7-12h8c-.623 8.095-5.103 14.895-10.902 20.363-11.142 8.694-21.525 9.44-35.098 8.637-8.702-1.215-16.436-6.97-22.148-13.43-7.402-10.024-10.127-21.598-8.543-33.984 1.901-10.87 6.45-20.76 15.343-27.637 13.746-9.107 31.237-10.296 45.582-1.594Z" fill="#000100"/><path d="M598 101h5c1.258 5.833 1.142 11.593 1.134 17.528l.007 3.538c.005 3.232.006 6.464.004 9.696 0 3.489.006 6.977.01 10.466.009 6.83.011 13.66.012 20.49 0 5.548.003 11.097.006 16.645.009 15.726.013 31.451.012 47.177v5.138c0 13.77.01 27.538.023 41.307.015 14.132.022 28.264.02 42.396 0 7.937.003 15.874.014 23.81.01 6.753.011 13.505.005 20.257-.004 3.448-.004 6.895.005 10.342.008 3.73.003 7.46-.005 11.19l.016 3.33-.014 3.01v2.611C604 392 604 392 602 394l-4-1V101Z" fill="#000001"/><path d="M216 271c3.273 2.672 4.571 6.165 6.137 9.969l.861 2.05a938.063 938.063 0 0 1 1.783 4.287c.905 2.19 1.824 4.374 2.744 6.557l1.737 4.168.833 1.98C231.26 302.849 232 304.898 232 308h-2l-1.207-3.027-1.606-3.91-.79-1.999c-.717-1.724-1.551-3.399-2.397-5.064-2.901-1.346-2.901-1.346-5.188 0-2.307 1.64-4.102 3.241-6.125 5.188-13.203 11.755-30.468 15.756-47.707 15.222-13.87-.846-28.04-7.747-37.98-17.41v-2c3.486 1.619 6.551 3.69 9.75 5.813 14.212 8.876 27.745 9.97 44.25 9.187l-1.737-.028c-18.838-.386-35.954-3.48-50.263-16.972l5-10 3 2v2l1.691.813c3.37 1.733 6.552 3.757 9.774 5.75 10.384 5.887 26.064 6.527 37.605 3.53 13.982-4.71 22.658-13.492 29.93-26.093Z" fill="#A7AAB9"/><path d="M351 271c3.735 1.245 3.93 2.242 5.75 5.625 6.373 10.94 15.683 16.924 27.659 20.795 4.987 1.116 10.01.846 15.091.705 2.156-.043 4.312-.082 6.469-.117l2.857-.074C411 298 411 298 412 299c7.679-2.575 14.035-5.187 20.098-10.645C434 287 434 287 438 287l2 6c-10.24 9.996-23.975 15.105-38 17 12.943 1.204 26.585-5.805 36.309-13.863C440 295 440 295 443 295v2a96.61 96.61 0 0 1-6 4.375l-1.82 1.231c-14.975 10.001-32.397 14.284-50.34 10.998-11.598-2.787-21.918-8.826-30.84-16.604l-3-1v-2h-3l-2-3-7 17h-1c-.552-5.814 1.37-9.945 3.688-15.125l2.199-5.059 1.091-2.48c1.382-3.158 2.704-6.338 4.022-9.524l1.188-2.855L351 271Z" fill="#A9ACB8"/><path d="M167.629 172.852c23.82-.746 45.402 7.207 62.736 23.472C242.88 208.494 249.566 224.05 256 240c1.115 2.692 2.244 5.377 3.375 8.063l.967 2.3c4.467 10.594 9.015 21.153 13.554 31.715a2070649472.684 2070649472.684 0 0 0 2.795 6.505A370.223 370.223 0 0 1 281 299h6c4.226-7.969 7.676-16.209 11.102-24.54 1.648-4.005 3.311-8.004 4.972-12.003l1.01-2.432c21.014-50.65 21.014-50.65 34.916-64.025l2.207-2.23c15.819-15.173 36.781-21.168 58.226-21.07 22.236.465 41.791 9.272 58.31 23.89C459 198 459 198 459 200c-3.39-.585-4.955-1.66-7.375-4.063-17.737-15.996-40.558-19.961-63.629-19.124-16.712 1.04-32.77 8.944-44.996 20.187l-2.36 2.117c-9.678 9.127-15.017 20.304-20.14 32.383l-1.795 4.166a3089.358 3089.358 0 0 0-4.729 11.046c-1.651 3.87-3.312 7.735-4.972 11.6a7982.034 7982.034 0 0 0-6.655 15.543c-1.15 2.693-2.305 5.384-3.461 8.075-.616 1.435-1.23 2.871-1.842 4.308a2127.3 2127.3 0 0 1-2.862 6.668l-.879 2.07c-1.201 2.774-2.146 4.865-4.305 7.024-2.383.195-2.383.195-5.125.125l-2.758-.055L279 302c-5.458-11.103-10.371-22.42-15.188-33.813l-.907-2.145a2946.064 2946.064 0 0 1-8.495-20.3c-2.491-5.983-5.108-11.903-7.785-17.804l-1.344-3.026c-9.033-19.886-22.56-34.97-43.281-42.912a261.522 261.522 0 0 0-13-4l-1.86-.537c-15.794-3.417-36.913-1.15-51.14 6.537l-2.633 1.309c-7.563 3.887-14.342 8.666-20.367 14.691-2.125-.375-2.125-.375-4-1 15.852-16.087 36.076-25.226 58.629-26.148Z" fill="#373E5B"/><path d="M794.805 297.168c6.192 4.76 9.669 11.3 11.195 18.832 1.034 10.538-.066 20.299-6.688 28.875-5.191 5.496-11.921 8.788-19.414 9.363-10.177.215-17.628-.884-25.273-7.925-7.089-7.791-8.726-15.916-8.625-26.313.718-9.105 4.196-15.599 10.813-21.813 11.049-8.978 26.155-8.68 37.992-1.019Zm-36.117 10.02c-4.378 5.633-6.013 11.264-5.688 18.375.894 6.876 3.855 11.739 9 16.312 6.69 4.739 12.992 4.881 21 4.125 6.72-1.718 10.544-6.176 14-12 1.213-3.64 1.222-7.02 1.25-10.813l.063-2.119c.043-5.858-1.228-9.782-5.18-14.115l-2.008-1.703-1.992-1.734c-9.761-6.937-22.483-4.7-30.446 3.671Zm167.562-13.5c5.97 3.246 8.562 8.095 10.75 14.312l-1 3h-7l-.734-1.68-1.016-2.195-.984-2.18c-1.893-2.909-4.008-3.647-7.309-4.43-5.603-.693-10.627-.541-15.957 1.485-2.288 1.52-2.288 1.52-3 4-.166 3.59-.166 3.59 1 7 4.973 3.915 11.526 5.02 17.52 6.662 7.28 2.075 14.49 4.431 18.48 11.338 1.26 4.613 1.244 8.14-.063 12.75-2.864 4.806-5.858 7.533-11.175 9.367-7.809 1.833-17.582 2.437-25.051-1.004-4.311-2.805-7.664-6.28-10.211-10.738-.583-2.768-.272-4.673.5-7.375h7l1.125 3.813c1.252 3.359 1.678 4.057 4.813 6.125L907 345l1.875.688c6.922 1.017 11.832.241 18.125-2.688 2.345-2.885 2.345-2.885 1.875-6.5-.994-3.976-1.514-4.443-4.875-6.5-2.264-.857-2.264-.857-4.703-1.43l-2.723-.722a1493.02 1493.02 0 0 0-5.601-1.422c-6.928-1.848-12.856-4.208-17.918-9.434-2.008-3.792-2.156-7.76-2.055-11.992 1.67-5.208 4.61-7.839 9-11 7.334-3.706 18.735-3.406 26.25-.313Z" fill="#000"/><path d="m171.563 170.625 3.153-.042c22.158.136 42.707 10.093 58.284 25.417l2.344 2.305c10.943 11.43 16.538 25.644 22.722 39.957A848.938 848.938 0 0 0 281 287a3619.91 3619.91 0 0 1 4 8h2l.747-1.802a4319.775 4319.775 0 0 1 18.65-44.284c1.37-3.203 2.734-6.408 4.1-9.613 12.035-28.186 12.035-28.186 17.565-34.738l2.075-2.461c2.205-2.487 4.426-4.839 6.863-7.102l2.035-2.016c9.627-9.204 21.491-16.117 34.402-19.609l2.622-.727c13.429-2.96 29.662-3.348 42.941.352l2.828.777c12.688 3.87 23.79 10.066 34.172 18.223l-3 2-1.477-1.285C432.953 177.352 410.561 172.52 387 174c-22.96 2.352-41.603 14.76-56.333 31.881-2.677 3.403-4.695 7.023-6.667 10.869l-1.384 2.67c-6.29 12.494-11.415 25.531-16.702 38.47a2173.732 2173.732 0 0 1-9.8 23.537 2308.4 2308.4 0 0 0-2.723 6.492l-1.66 3.933-1.457 3.463C289 298 289 298 287 300c-3.125.125-3.125.125-6 0-3.996-7.637-7.283-15.563-10.625-23.5l-1.87-4.427a5566.535 5566.535 0 0 1-13.321-31.811l-1.076-2.585a1058.77 1058.77 0 0 1-2.35-5.725c-9.294-22.684-22.548-41.094-45.77-51.161-22.01-8.756-45.98-9.609-68.027-.553C127.317 184.852 118.263 190.775 110 199l-3-1c11.46-11.17 23.848-18.89 39-24l2.957-1.031c7.468-2.16 14.872-2.272 22.606-2.344Z" fill="#A1A6B9"/><path d="M216.75 196.375c11.232 9.266 18.787 19.52 24.438 32.938l1.404 3.258c4.026 9.389 7.888 18.846 11.768 28.296a982.298 982.298 0 0 0 10.785 25.152c.563 1.264 1.125 2.528 1.684 3.794 4.004 9.75 4.004 9.75 10.171 18.187 2.244.206 4.497.314 6.75.375l3.734.148c4.565-.68 5.56-2.017 8.516-5.523 1.567-2.776 2.802-5.659 4.031-8.598l1.086-2.515c1.14-2.645 2.261-5.297 3.383-7.95.753-1.755 1.507-3.51 2.262-5.263a2110.411 2110.411 0 0 0 10.022-23.757c2.241-5.377 4.52-10.738 6.818-16.09a988.916 988.916 0 0 0 1.666-3.914c8.636-20.4 20.92-38.652 42.2-47.327C389.076 179.69 409.844 179.22 431 189c6.47 3.266 12.539 7.221 18 12v2c-3.218-1.516-6.101-3.346-9.063-5.313-16.855-10.675-37.032-15.68-56.86-11.656-17.5 4.074-33.395 13.629-43.702 28.63-6.937 11.804-12.142 24.5-17.434 37.1-3.532 8.405-7.235 16.736-10.914 25.079-2.86 6.483-2.86 6.483-5.66 12.992a272.541 272.541 0 0 1-4.742 10.356l-1.71 3.605c-2.045 3.425-3.473 5.204-6.915 7.207-3.629.46-3.629.46-7.563.375l-3.94-.04c-3.316-.318-4.779-.567-7.497-2.335-4.999-7.109-8.226-15.635-11.732-23.56-.829-1.874-1.664-3.744-2.5-5.614-3.374-7.561-6.605-15.175-9.768-22.826a2585.884 2585.884 0 0 0-6.401-15.255 979.82 979.82 0 0 1-1.937-4.62c-8.59-20.622-19.405-37.459-40.85-46.313-19.182-7.482-39.185-8.294-58.199.024-6.963 3.258-12.962 6.907-18.613 12.164h-3c2.182-6.545 11.553-10.737 17.52-13.816 25.929-11.612 56.032-10.11 79.23 7.191Z" fill="#353D59"/><path d="M861.375 293.5c6.036 3.62 10.346 8.626 12.202 15.427.79 3.868.805 7.754.872 11.69l.066 2.72c.044 1.885.083 3.769.118 5.653.055 2.897.125 5.793.197 8.69l.12 5.5.062 2.635A197.72 197.72 0 0 1 875 352c-1 1-1 1-4 1.125-3-.125-3-.125-4-1.125a225.783 225.783 0 0 1-.21-8.164l-.087-5.09c-.041-2.68-.078-5.358-.104-8.038a969.523 969.523 0 0 0-.122-7.747l-.01-2.4c-.145-6.62-1.517-11.318-5.967-16.436-4.856-4.128-10.418-3.596-16.5-3.125-5.81 1.937-9.317 5.745-12.117 11.161-1.178 3.789-1.22 7.455-1.262 11.386l-.051 2.46a1406.84 1406.84 0 0 0-.133 7.743c-.043 2.595-.09 5.19-.142 7.786a732.125 732.125 0 0 0-.08 4.838c-.103 5.514-.103 5.514-1.215 6.626-3 .125-3 .125-6 0-1-1-1-1-1.12-3.322l.006-3.116v-3.518l.016-3.83.005-3.896c.003-3.424.013-6.849.024-10.273.01-3.492.015-6.985.02-10.477.01-6.856.028-13.712.049-20.568 2.375-.625 2.375-.625 5-1 2.565 2.565 2.54 4.477 3 8l1.54-1.46c.687-.633 1.376-1.264 2.085-1.915l2.04-1.898c6.901-5.102 17.905-5.672 25.71-2.227Z" fill="#000100"/><path d="M1169.438 293.563c6.382 3.864 9.952 8.981 11.97 16.088 1.208 6.837.954 13.79.873 20.711-.031 2.725-.04 5.45-.047 8.175-.009 1.729-.02 3.457-.03 5.186l-.014 2.474c-.073 5.686-.073 5.686-1.19 6.803-2.438.188-2.438.188-5 0-2-2-2-2-2.195-4.683l.07-3.399c.015-1.243.03-2.487.047-3.768.051-2.599.103-5.198.156-7.796.471-15.41.471-15.41-5.078-29.354-5.218-3.783-10.807-3.665-17-3-5.92 1.973-9.312 5.877-12.25 11.313-2.372 8.5-1.84 17.45-1.75 26.187.025 2.531.046 5.062.063 7.594l.035 3.365C1138 352 1138 352 1137 353c-3 .125-3 .125-6 0-1-1-1-1-1.12-3.322l.006-3.116v-3.518l.016-3.83.005-3.896c.003-3.424.013-6.849.024-10.273.01-3.492.015-6.985.02-10.477.01-6.856.028-13.712.049-20.568 2.375-.625 2.375-.625 5-1 2.565 2.565 2.54 4.477 3 8l1.54-1.46c.687-.633 1.376-1.264 2.085-1.915l2.04-1.898c6.934-5.126 17.956-5.673 25.773-2.164Z" fill="#000"/><path d="m199 182 2.953 1.133c28.638 12.079 40.405 35.25 51.489 62.47 1.284 3.19 2.553 6.385 3.807 9.587 3.76 9.53 7.808 18.913 11.985 28.268a3253.25 3253.25 0 0 1 3.284 7.39l2.095 4.707.988 2.228c1.33 3.344 1.33 3.344 3.399 6.217 2.187.432 2.187.432 4.75.563l2.61.253c3.66-1.131 4.493-2.932 6.331-6.196 2.699-5.403 5.078-10.937 7.434-16.495A3540.945 3540.945 0 0 0 307 266l1.528-3.6c1.41-3.32 2.816-6.64 4.222-9.962l1.357-3.205a1905.27 1905.27 0 0 0 6.33-15.131C330.64 209.536 344.12 192.728 369 182c9.37-3.752 18.193-4.365 28.188-4.438l3.274-.03c17.283.188 35.088 6.51 48.538 17.468a95.561 95.561 0 0 1 4 5c-4.073-.594-6.624-2.768-9.875-5.188-6.652-4.8-13.482-7.869-21.125-10.812l-2.406-1.098c-18.262-6.353-40.583-2.18-57.44 5.842-6.056 3.03-11.191 6.63-16.154 11.256l-2.133 1.895c-8.374 7.817-13.455 17.67-17.867 28.105l-1.375 3.185a2265.18 2265.18 0 0 0-3.791 8.86c-1.502 3.522-3.015 7.039-4.525 10.557a66063.862 66063.862 0 0 0-7.711 17.976l-.936 2.182c-1.91 4.462-3.794 8.934-5.666 13.412l-1.359 3.216a585.046 585.046 0 0 0-2.405 5.775c-2.05 4.822-3.912 8.624-8.232 11.837-2.973.664-2.973.664-6.063.625l-3.097.04c-3.968-.929-4.687-2.2-6.84-5.665-1.837-3.549-3.492-7.166-5.125-10.813l-1.461-3.226c-3.647-8.107-7.105-16.285-10.491-24.504a1507.41 1507.41 0 0 0-9.878-23.348c-.563-1.302-1.124-2.604-1.684-3.907C235.248 212.7 223.89 196.613 200 186l-3.422-1.598c-17.215-6.747-38.623-5.458-55.495 1.652-6.921 3.143-13.579 6.675-19.282 11.755L119 200l-3-1c8.252-7.552 16.771-12.62 27-17l3.188-1.387c15.986-5.695 37.11-4.71 52.812 1.387Z" fill="#363D5A"/><path d="M957 292.875c3 .125 3 .125 4 1.125.123 2.885.186 5.75.21 8.637l.087 5.377c.041 2.833.078 5.665.104 8.498.028 2.73.074 5.458.122 8.187l.01 2.548c.104 4.978.723 8.438 3.467 12.753 5.209 4.7 8.37 5.296 15.238 5.215 4.942-.385 7.7-2.065 11.012-5.652 4.428-6.485 4.878-12.575 5.031-20.333l.114-4.439c.053-2.315.106-4.63.157-6.946.052-2.247.11-4.493.167-6.74l.04-2.114c.128-4.878.128-4.878 1.241-5.991 2.5-.125 2.5-.125 5 0 1 1 1 1 1.12 3.322l-.006 3.116v3.518l-.016 3.83-.005 3.896a4397.31 4397.31 0 0 1-.024 10.273c-.01 3.492-.015 6.985-.02 10.477-.01 6.856-.028 13.712-.049 20.568a88.406 88.406 0 0 1-5 1c-2.047-2.047-1.7-6.304-2-9l-1.066 1.426c-3.364 4.241-6.451 7.485-11.934 8.574-9.337.838-15.222-.038-23.125-4.938-5.514-5.06-7.842-12.471-8.292-19.774-.17-5.328-.069-10.648.042-15.976.017-1.863.03-3.727.043-5.591.147-14.672.147-14.672 4.332-14.846Z" fill="#000"/><path d="M106 202c12.767-.777 12.767-.777 16.875 1.813L125 207c1.435 1.94 2.873 3.877 4.313 5.813A1077.8 1077.8 0 0 1 133 218l2.375-1.625A637.278 637.278 0 0 1 139 214l2.238-1.46A152.31 152.31 0 0 1 149 208l2.316-1.273c10.46-4.735 26.044-4.82 36.871-1.102A95.863 95.863 0 0 1 193 208l2.848 1.32c14.654 7.22 21.676 21.64 27.636 36.216a905.752 905.752 0 0 0 2.594 6.263c.946 2.266 1.892 4.532 2.834 6.8 3.775 9.08 7.64 18.122 11.513 27.16a6629.48 6629.48 0 0 1 3.533 8.276l2.206 5.156.996 2.342c5.428 12.65 10.19 20.979 22.84 27.467 4.493 1.498 8.917 1.266 13.625 1.313l2.91.087c9.527.084 16.58-2.752 23.483-9.333 5.6-5.84 9.102-12.95 12.197-20.34l1.129-2.635a1372.26 1372.26 0 0 0 2.372-5.579c1.24-2.932 2.493-5.859 3.749-8.785a2214.35 2214.35 0 0 0 10.754-25.482c1.302-3.144 2.615-6.283 3.93-9.422.881-2.121 1.742-4.25 2.603-6.38 2.827-6.851 6.026-13.057 10.314-19.12l1.215-1.72c4.522-6.1 11.012-12.224 18.719-13.604-1.188 3.564-1.94 3.818-5.063 5.688-16.261 10.626-21.532 28.43-28.718 45.667a1180.178 1180.178 0 0 1-7.375 17.196l-1.087 2.49c-2.882 6.606-2.882 6.606-4.321 9.876-3.355 7.624-6.56 15.053-8.79 23.093-1.923 5.926-6.066 9.552-10.896 13.178l-1.621 1.287c-8.337 6.366-15.661 6.986-26.004 6.525l-3.395-.059c-10.514-.404-18.638-3.723-25.876-11.476-6.768-8.996-10.747-20.685-14.917-31.027-2.85-7.04-5.714-14.047-8.937-20.926-3.53-7.544-6.62-15.26-9.675-23.006-3.342-8.452-7.14-16.035-12.325-23.506l-1.192-1.789c-3.555-4.835-8.648-7.403-13.808-10.211l-3.25-1.813c-5.914-2.553-12.048-2.341-18.375-2.312l-2.563-.012-2.476.004-2.233.004c-2.179.134-4.038.418-6.103 1.129l-1 2c-1.75.422-1.75.422-4 .75-6.73 1.35-11.691 5.204-16.75 9.688C134 222 134 222 131.676 221.847c-3.294-1.044-5.133-2.584-7.738-4.848-5.085-4.323-10.318-8.311-15.7-12.25L106 203v-1Z" fill="#6A6C74"/><path d="M45 101h483l1 3H45v-3Z" fill="#00052B"/><path d="M529 393c-1.74 1.74-3.997 1.123-6.315 1.131l-2.336-.008-2.47.004c-2.765.002-5.532-.002-8.298-.007l-5.967.003c-5.493.002-10.986-.002-16.48-.007-5.913-.004-11.827-.003-17.74-.002-10.924 0-21.848-.003-32.772-.01-10.09-.005-20.18-.008-30.269-.01H394.15c-24.052-.002-48.104-.01-72.157-.019-23.371-.009-46.743-.016-70.114-.02h-2.182a2121102.022 2121102.022 0 0 0-65.881-.013h-2.053c-45.254-.01-90.508-.025-135.762-.042l-1-2c45.924-.13 91.848-.257 137.772-.37l2.059-.006a722101.486 722101.486 0 0 1 65.992-.161l2.182-.005c23.364-.057 46.728-.121 70.092-.188a116636.444 116636.444 0 0 1 82.162-.208l2.02-.004c10.081-.023 20.163-.052 30.245-.084 11.461-.037 22.922-.066 34.383-.087 5.853-.011 11.706-.025 17.56-.048 5.35-.02 10.7-.033 16.05-.037 1.944-.003 3.888-.01 5.831-.02 2.626-.013 5.252-.014 7.878-.012l2.328-.021c5.218.023 5.218.023 7.446 2.251Z" fill="#000534"/><path d="m1061 279 5 1v13l3.867-.07c1.67-.02 3.339-.037 5.008-.055l2.55-.05 2.442-.02 2.254-.032C1084 293 1084 293 1086 295l-1 6h-19c.074 5.036.157 10.07.262 15.106.034 1.712.062 3.424.084 5.136.034 2.465.086 4.93.142 7.395l.02 2.308c.124 4.508.726 7.455 3.492 11.055 3.203 2.27 6.397 2.374 10.25 2.625l3.266.227L1086 345c.38 2.326.713 4.66 1 7-1.898 1.898-5.03 1.261-7.563 1.313-5.983-.067-10.796-.288-15.437-4.313-5.48-6.596-6.156-12.75-6.098-21.145l.005-2.332c.005-2.445.018-4.89.03-7.336A5167.054 5167.054 0 0 1 1058 301c-.782.013-1.565.024-2.371.036-1.012.01-2.024.018-3.066.027l-3.06.036C1047 301 1047 301 1046 300c-.125-3-.125-3 0-6 1-1 1-1 3.504-1.098l3.059.036 3.066.027L1058 293l.148-2.555.227-3.32.21-3.305C1059 281 1059 281 1061 279Z" fill="#000"/><path d="m173.125 175.688 3.033-.054c7.052.006 13.144 1.207 19.842 3.366l3.059.922C211.882 184.386 221.51 191.552 231 201l1.992 1.887c12.358 12.67 18.503 32.712 24.883 48.843 1.958 4.9 4.036 9.739 6.164 14.567l2.258 5.152c1.169 2.662 2.338 5.324 3.509 7.985 1.142 2.6 2.282 5.2 3.42 7.8l1.058 2.397c1.782 4.072 3.391 8.118 4.716 12.369 3.738.594 6.48.447 10-1a38.569 38.569 0 0 0 3.387-6.57l.882-2.027a414.7 414.7 0 0 0 1.822-4.26c1.157-2.728 2.372-5.429 3.59-8.131 1.54-3.434 3.053-6.88 4.569-10.325l.977-2.213A1686.64 1686.64 0 0 0 317 237.75c10.375-24.677 22.797-45.276 48.492-56.395 19.565-7.56 43.067-8.837 62.63-.445 6.984 3.17 13.563 6.737 19.878 11.09l-2 2-1.738-1.285c-6.094-4.207-12.138-7.052-19.075-9.59l-2.46-.903c-19.136-6.773-41.637-4.859-59.89 3.463-26.493 12.731-36.148 35.572-46.837 61.167-4.73 11.31-9.635 22.545-14.536 33.783-1.327 3.05-2.645 6.103-3.96 9.158l-2.129 4.894-.928 2.176c-2.782 6.339-2.782 6.339-5.447 8.137-2.34.504-2.34.504-4.938.563l-2.59.128c-3.595-1.005-4.715-3.6-6.472-6.691-1.27-2.565-2.391-5.18-3.496-7.82l-.956-2.242c-1-2.352-1.993-4.708-2.986-7.063a3100.478 3100.478 0 0 1-11.349-26.96 2816.129 2816.129 0 0 0-7.088-16.852l-1.488-3.553c-9.725-22.873-21.565-39.853-44.907-49.92-18.136-7.242-39.668-9.123-58.218-2.145L141 184l-1.884.827c-7.274 3.25-14.019 7.004-20.116 12.173l-2-2c7.391-5.318 14.625-10.321 23-14l1.938-.895c9.904-4.188 20.605-4.311 31.187-4.417Z" fill="#A2A7BD"/><path d="M1026 269c2-.043 4-.04 6 0 1.74 1.74 1.126 3.998 1.136 6.317l-.007 2.308.006 2.42c.004 2.651.001 5.303-.002 7.955a7243.458 7243.458 0 0 1-.002 17.055c-.006 4.947-.003 9.893.003 14.84.004 3.79.002 7.58 0 11.37 0 1.825 0 3.65.002 5.474.003 2.545-.001 5.09-.007 7.636l.007 2.308c-.022 5.203-.022 5.203-1.136 6.317-2 .04-4 .043-6 0-.89-4.57-1.143-8.985-1.13-13.626l-.005-2.24c-.004-2.424-.001-4.85.002-7.275l-.003-5.071c-.001-3.534 0-7.068.006-10.601.005-4.536.002-9.07-.004-13.606-.004-3.486-.002-6.973 0-10.459 0-1.673 0-3.346-.002-5.019-.003-2.332.001-4.663.007-6.995l-.007-2.103c.022-4.776.022-4.776 1.136-7.005Z" fill="#000"/><path d="M216.75 196.375c11.232 9.265 18.788 19.52 24.438 32.938l1.387 3.219c4.19 9.777 8.253 19.61 12.277 29.458 2.615 6.387 5.333 12.678 8.35 18.887L264 283l-1 2h-2a7474.636 7474.636 0 0 1-3.188-7.25l-.884-2.008c-2.224-5.068-4.365-10.169-6.489-15.28a3139.296 3139.296 0 0 0-7.84-18.717 979.82 979.82 0 0 1-1.937-4.62c-8.59-20.622-19.405-37.459-40.85-46.313-19.182-7.482-39.185-8.294-58.199.024-6.963 3.258-12.962 6.907-18.613 12.164h-3c2.182-6.545 11.553-10.737 17.52-13.816 25.929-11.612 56.032-10.11 79.23 7.191Z" fill="#373F5B"/><path d="M1105.563 292.813C1108 293 1108 293 1109 294c.099 1.805.128 3.614.13 5.422l.009 3.509-.006 3.819.003 3.89c.001 2.72-.001 5.44-.006 8.16-.005 3.495-.002 6.989.004 10.483.004 3.322.001 6.645-.001 9.967l.006 3.82-.01 3.508-.002 3.107C1109 352 1109 352 1108 353c-3 .125-3 .125-6 0-1.716-1.716-1.136-3.972-1.145-6.314l-.02-3.439-.003-3.743-.01-3.815c-.005-2.67-.008-5.338-.007-8.008 0-3.424-.014-6.848-.031-10.273-.014-3.26-.013-6.52-.014-9.78l-.022-3.737.01-3.447-.005-3.046c.359-3.485 1.338-4.331 4.81-4.586Z" fill="#000"/><path d="M106 202c12.767-.777 12.767-.777 16.875 1.813L125 207c1.435 1.94 2.873 3.877 4.313 5.813A1077.8 1077.8 0 0 1 133 218l2.375-1.625A637.278 637.278 0 0 1 139 214l2.238-1.46A152.31 152.31 0 0 1 149 208l2.316-1.273c10.46-4.735 26.044-4.82 36.871-1.102A95.863 95.863 0 0 1 193 208l2.848 1.32c7.708 3.797 12.431 8.6 17.152 15.68-.375 2.188-.375 2.188-1 4l-1.434-2.195c-4.482-6.553-8.588-11.017-15.566-14.805-.705-.4-1.41-.8-2.137-1.21-7.004-3.763-13.673-3.951-21.488-3.915l-2.563-.012-2.476.004-2.233.004c-2.179.134-4.038.418-6.103 1.129l-1 2c-1.75.422-1.75.422-4 .75-6.73 1.35-11.691 5.204-16.75 9.688C134 222 134 222 131.676 221.847c-3.294-1.044-5.133-2.584-7.738-4.848-5.085-4.323-10.318-8.311-15.7-12.25L106 203v-1Z" fill="#595B62"/><path d="m134 283-4 10c13.131 10.019 25.973 15.156 42.438 15.625l3.373.117c2.73.094 5.459.18 8.189.258-6.758 4.506-18.532 2.833-26.326 1.646C147.158 308.42 138.656 303.162 130 297l-3-2c6.752 7.16 13.859 10.995 22.89 14.668C153 311 153 311 156 313c-5.276-.518-9.222-1.785-13.938-4.188l-1.85-.933c-3.525-1.829-6.605-3.84-9.65-6.379-2.76-2.187-3.29-2.49-7-2.625-3.676 1.161-6.997 2.685-10.472 4.336-2.67 1.008-4.445.813-7.09-.211 4.693-5.179 10.313-8.982 16-13l2.867-2.07 2.695-1.93 2.442-1.75C132 283 132 283 134 283Z" fill="#C6C8CE"/><path d="M435 283c4.133 1.425 7.126 3.442 10.563 6.125 5.257 4.043 10.63 7.69 16.234 11.246L464 302v2c-4.585 1.517-7.515-.312-11.625-2.375l-2.063-1c-2.446-1.19-4.879-2.408-7.312-3.625v-2c-3.875 2.143-7.524 4.361-11.125 6.938-9.93 6.721-20.423 9.245-32.188 9.125l-2.533-.014c-2.051-.012-4.103-.03-6.154-.049v-1l3.227-.297c15.063-1.498 32.797-4.115 43.718-15.781L439 292c-.71-2.734-.71-2.734-2-5-3.171 1.46-5.78 3.276-8.563 5.375-5.071 3.592-10.328 6.298-16.437 7.625-2.32-.406-2.32-.406-4-1l3.148-1.25c9.077-3.718 16.811-7.71 23.852-14.75Z" fill="#C5C7CD"/><path d="M215 276h2c-.741 8.094-6.202 12.56-11.988 17.8-12.029 9.639-25.924 12.42-41.012 11.2-12.158-2.358-22.433-7.224-32-15l1-4 1.434 1.137C147.682 297.389 161.025 302.434 178 301c12.461-1.595 24.077-7 32-17a101.1 101.1 0 0 0 3.957-6.496L215 276Z" fill="#3B415B"/><path d="M352 276a116.308 116.308 0 0 1 8.313 8.938C367.873 293.55 377.618 298.93 389 301c7.806.387 15.571.676 23-2l3.05-1c6.618-2.32 11.84-4.942 17.145-9.547C434 287 434 287 437 286c-.255 3.486-.69 4.722-3.336 7.098-6.68 4.318-13.011 7.692-20.664 9.902l-2.195.68c-12.834 3.457-26.495 1.666-38.305-4.18-7.556-4.371-15.78-11.08-20.5-18.5-.188-2.75-.188-2.75 0-5Z" fill="#393F58"/><path d="M350 282h2c1.156 1.469 1.156 1.469 2.5 3.5 7.09 9.617 17.787 16.865 29.5 19.5 18.254 2.263 33.426.017 48.695-10.45A45.767 45.767 0 0 1 439 291c0 3 0 3-1.328 4.395-16.1 11.878-31.891 15.27-51.45 13.207-13.557-2.349-24.805-9.738-34.222-19.602-2-3-2-3-2-7Z" fill="#2B2B32"/><path d="m217 282 2 1c-.997 6.66-7.258 11.902-12.363 15.809-15.202 9.578-32.573 12.731-50.227 9.543-9.854-3.096-19.868-8.241-27.41-15.352l1-2c3.677 1.314 6.418 2.932 9.5 5.313 14.091 9.804 28.94 10.661 45.726 8.385 12.368-2.369 22.22-9.93 29.774-19.698l2-3Z" fill="#3B415A"/><path d="m349 289 2.875 2.563C369.498 306.572 386.122 311.767 409 310c4.576-.693 8.762-2.155 13-4l2.723-1.168c5.024-2.342 9.32-5.16 13.586-8.695C440 295 440 295 443 295v2a96.61 96.61 0 0 1-6 4.375l-1.82 1.231c-14.975 10.001-32.397 14.284-50.34 10.998-11.598-2.787-21.918-8.826-30.84-16.604l-3-1c-1.648-2.602-2-3.862-2-7Z" fill="#393836"/><path d="m219 289 2 2a265.256 265.256 0 0 1-5 5c-.512.531-1.024 1.062-1.55 1.61-12.59 12.17-29.788 16.943-46.877 16.88-14.933-.462-29.832-7.047-40.573-17.49v-2c3.486 1.619 6.551 3.69 9.75 5.813 15.217 9.455 32.786 12.003 50.446 8.787 3.894-1.011 7.301-2.654 10.804-4.6l3.121-1.574c7.1-3.803 12.512-8.45 17.879-14.426Z" fill="#222324"/><path d="m396.625 179.813 3.16-.038C418.961 179.74 435.25 186.98 450 199l1-1-4-5c4.269.474 6.11 3.035 9 6l3 1-5-7c3.863.966 4.673 1.276 7.25 3.938l1.578 1.59C464 200 464 200 464 202l-2.773.402-3.602.536-3.586.527c-2.946.37-2.946.37-5.039 1.535l-.617-2.223c-1.777-3.568-4.213-5.179-7.508-7.214-.612-.387-1.225-.773-1.856-1.17-6.93-4.199-14.335-6.913-22.019-9.393l-3.11-1.16c-5.891-1.272-11.698-.967-17.702-.84-2.444.05-4.888.093-7.333.125l-3.26.07C383 183 383 183 381 181c5.128-1.504 10.324-1.184 15.625-1.188Z" fill="#B7B7B7"/><path d="M213 226c2.878 3.367 4.854 6.476 6.559 10.559l1.399 3.312 1.48 3.566c.522 1.242 1.045 2.484 1.569 3.725.821 1.945 1.642 3.891 2.46 5.838 2.764 6.573 5.604 13.112 8.45 19.65 4.256 9.775 8.489 19.56 12.549 29.419 1.974 4.755 4.183 9.35 6.534 13.931l1 2c-1.82-.177-1.82-.177-4-1-1.492-2.215-1.492-2.215-2.875-5.16l-1.555-3.301c-2.638-5.946-5.133-11.945-7.57-17.976-3.316-8.173-6.746-16.245-10.482-24.235-2.762-6.057-5.252-12.228-7.768-18.39-.794-1.941-1.589-3.881-2.385-5.82-.713-1.736-1.422-3.472-2.132-5.208-1.14-2.821-1.14-2.821-2.396-5.052C213 230 213 230 213 226Z" fill="#686973"/><path d="m171.188 179.563 3.31-.031c7.25.078 13.616 1.212 20.502 3.468v3l-2.36-.656c-21.84-5.435-42.43-2.528-61.915 8.552-2.534 1.622-4.655 3.619-6.85 5.667-3.09 2.713-4.426 3.403-8.594 3.714-3.484-.247-6.847-.644-10.281-1.277v-2c2.163-.56 4.297-1.052 6.5-1.438 2.442-.549 4.321-1.352 6.5-2.562l-1 3c3.111-1.44 5.698-3.198 8.438-5.25 5.855-4.124 11.928-7.082 18.562-9.75l3.027-1.262c8.029-2.828 15.704-3.12 24.16-3.175Z" fill="#B6B6BA"/><path d="m228 309 1 3c-16.917 13-16.917 13-21 13l-1 3c-1.858.54-3.725 1.061-5.617 1.465-3.33.748-6.546 1.809-9.793 2.851-19.48 5.142-40.965 1.994-58.59-7.316v-2c2.846.923 5.67 1.872 8.46 2.953 20.989 8.059 44.043 7.064 64.509-2.023 8.24-3.838 15.33-8.824 22.031-14.93Z" fill="#60626B"/><path d="M310 274c2.164 6.49-3.259 14.557-6.164 20.496a726.995 726.995 0 0 1-2.336 4.567l-1.113 2.2c-2.21 4.165-4.172 7.345-8.387 9.737-3.629.46-3.629.46-7.563.375l-3.94-.04c-5.018-.481-5.018-.481-7.497-2.335-2.38-3.452-4.144-7.245-6-11l-1.531-3.066c-3.606-7.523-3.606-7.523-2.469-10.934 3.667 5.557 6.71 11.258 9.588 17.25 1.275 2.626 2.331 4.67 4.412 6.75 3.182.436 3.182.436 6.813.438l3.707.12c4.46-.715 5.557-2.177 8.48-5.558 1.7-3.015 1.7-3.015 3.043-6.324l1.564-3.615c.528-1.25 1.055-2.499 1.58-3.748 1.05-2.466 2.108-4.927 3.168-7.387.46-1.09.921-2.178 1.396-3.3C308 276 308 276 310 274Z" fill="#2E2F2E"/><path d="M269 266h2l.962 2.016a35714.52 35714.52 0 0 0 5.864 12.28c2.352 4.923 4.708 9.839 7.174 14.704h2l4-10h2c-.514 5.136-2.218 11.218-6 15-2 .04-4 .043-6 0a300.116 300.116 0 0 1-8.25-17.563l-1.102-2.458c-2.116-4.93-3.08-8.614-2.648-13.979Z" fill="#AFB1BB"/><path d="m458.688 201.938 2.449.027L463 202c-3.734 3.89-7.681 7.259-11.938 10.563l-1.802 1.42c-10.327 8.069-10.327 8.069-13.51 7.892C434 221 434 221 432 219l1-3 4 3 .777-1.715c1.811-3.384 4.253-6.191 6.664-9.164 1.732-2.13 1.732-2.13 2.559-5.121h4c2.882-.96 4.699-1.106 7.688-1.063Z" fill="#58595A"/><path d="M321 308c1.193 3.516 1.028 3.938-.625 7.625-2.632 3.93-5.99 6.797-9.688 9.688l-1.613 1.273c-8.347 6.24-15.665 6.872-25.949 6.414l-3.395-.059c-8.924-.343-15.522-2.486-22.457-8.18l-1.898-2.074-1.977-2.113L252 319l3-1 1.652 1.61 2.286 2.14 2.214 2.11c7.26 5.456 13.885 6.789 22.848 6.64.933.015 1.867.03 2.828.047 9.523-.053 16.378-3.193 23.32-9.61 2.433-2.545 4.514-5.255 6.528-8.14 1.312-1.78 2.723-3.276 4.324-4.797Z" fill="#62646E"/><path d="M383 182c-2.406 2.406-4.13 2.779-7.375 3.75-10.975 3.57-19.996 8.583-28.625 16.25l-1.93 1.68c-9.47 8.796-14.238 20.615-19.07 32.32l-2-1c1.457-10.744 8.853-22.152 16-30l2.05-2.293c7.564-8.02 16.249-13.122 26.2-17.644l2.004-.93c4.395-1.91 7.875-2.442 12.746-2.133Z" fill="#ACB0C3"/><path d="M441.406 195.105c5.188 3.79 5.188 3.79 7.594 5.895v2c-3.218-1.516-6.101-3.346-9.063-5.313C420.168 185.166 399.87 183.615 377 186l1-2c21.505-6.968 45.032-1.02 63.406 11.105Z" fill="#242322"/><path d="M179 175v1l-3.375.113c-13.569.547-27.454 1.311-39.625 7.887l-2.633 1.309c-7.563 3.887-14.342 8.666-20.367 14.691-2.125-.375-2.125-.375-4-1 8.087-8.207 16.596-14.076 27-19l2.073-.987c13.477-6.12 26.428-5.362 40.927-4.013Z" fill="#494E63"/><path d="M457.742 196.59C459 198 459 198 459 200c-3.39-.585-4.955-1.66-7.375-4.063-14.522-13.096-33.985-18.952-53.188-19.562l-3.056-.117c-2.46-.093-4.92-.18-7.381-.258v-1c27.721-1.765 48.422 2.723 69.742 21.59Z" fill="#4B5065"/><path d="m173.25 175.75 3.084-.028c6.192.026 11.673.711 17.666 2.278l-2 2c-1.83-.194-3.66-.404-5.48-.68-15.375-1.95-31.253-1.636-45.52 4.68l-1.884.827c-7.274 3.25-14.019 7.004-20.116 12.173l-2-2c7.391-5.318 14.625-10.321 23-14l1.938-.895c9.964-4.214 20.671-4.294 31.312-4.355Z" fill="#AFB0B8"/><path d="m347 315 3.938 2.188 2.507 1.382c1.59.89 3.171 1.799 4.735 2.735 17.7 10.439 38.862 11.382 58.82 8.695-2 3-2 3-4.445 3.668C388.89 335.878 367.403 332.45 348 318l-1-3Z" fill="#5F616B"/><path d="m171.688 181.688 2.686-.018c6.37.073 6.37.073 8.626 2.33l-3.777.078C158.384 184.69 138.78 188.32 123 203h-3c2.182-6.545 11.553-10.737 17.52-13.816 11.333-5.076 21.797-7.42 34.167-7.496Z" fill="#252526"/><path d="m134 283 3 2v2l1.691.813c3.37 1.733 6.552 3.757 9.774 5.75 7.713 4.373 15.433 4.603 24.097 4.562l2.499.012c3.574-.006 6.815-.114 10.341-.77C188 297 188 297 191 299c-15.208 4.309-29.391 4.796-43.785-2.39-5.247-3.008-9.756-6.539-14.215-10.61l1-3Z" fill="#A1A7B8"/><path d="M248 242c2.42 2.42 3.182 4.555 4.469 7.73l1.468 3.593 1.563 3.864a3480.218 3480.218 0 0 0 4.05 9.923 425.163 425.163 0 0 0 5.536 12.824l1.428 3.18a561.15 561.15 0 0 0 2.715 5.914l1.2 2.667 1.07 2.313L272 296l-2 3c-10.196-23.353-10.196-23.353-13.703-31.957a265.613 265.613 0 0 0-3.406-7.617l-1.13-2.462a426.275 426.275 0 0 0-2.26-4.825l-1.024-2.233-.935-1.99c-.655-2.318-.302-3.663.458-5.916Z" fill="#AAADBA"/><path d="M180 178v1l-1.718.088c-20.219 1.152-40.825 4.778-56.481 18.72L119 200l-3-1c18.863-17.265 38.972-21.841 64-21Z" fill="#292929"/><path d="M1108 272c3 2 3 2 3.875 4.875.125 3.125.125 3.125-1 5.438-2.34 2.105-3.743 2.534-6.875 2.687-2.706-.977-3.703-1.405-5-4-.447-5.255-.447-5.255 1.125-7.875 2.728-1.637 4.755-1.45 7.875-1.125Z" fill="#000"/><path d="m461 304 2 1-1.313 1.188c-1.788 1.75-1.788 1.75-2.812 4.062-6.232 9.14-18.249 15.589-28.875 17.75l-2.625 1.125c-2.892 1.065-5.318 1.017-8.375.875 3.212-2.141 6.19-3.231 9.813-4.563C441.267 320.62 451.466 313.293 461 304Z" fill="#394059"/><path d="M389 178c22.898-.627 22.898-.627 33 3l3.633 1.254c10.439 3.783 20.61 8.616 27.367 17.746-4.073-.594-6.624-2.768-9.875-5.188-6.652-4.8-13.482-7.869-21.125-10.812l-2.504-1.094c-9.402-3.413-20.579-3.333-30.496-3.906v-1Z" fill="#2E2F31"/><path d="m130 294 2.746 1.61c13.285 7.728 24.122 12.571 39.691 13.015l3.374.117c2.73.094 5.459.18 8.189.258-6.758 4.506-18.532 2.833-26.326 1.646-10.156-2.15-19.711-7.002-27.674-13.646v-3Z" fill="#BABBC4"/><path d="m397.625 203.438 3.191.005C412.79 203.717 422.69 207.28 432 215l-2 2-7-4v-2l-4 1v-2c-12.633-4.868-28.036-4.457-41-1l-1-2c6.91-2.82 13.193-3.58 20.625-3.563Z" fill="#50535E"/><path d="M443 295v2a96.897 96.897 0 0 1-6 4.375l-1.81 1.229c-10.886 7.295-21.081 10.946-34.315 10.584l-2.898-.042A586.017 586.017 0 0 1 391 313v-1l3.48-.297c16.195-1.506 31.037-4.965 43.829-15.566C440 295 440 295 443 295Z" fill="#232222"/><path d="m437 291 3 1c-2.973 4.214-6.229 6.675-10.688 9.125l-1.74 1.012c-8.977 5.047-16.369 6.282-26.635 5.55l-3.2-.185c-2.58-.152-5.159-.32-7.737-.502v-1l3.883-.043c15.96-.362 31.263-3.103 43.117-14.957Z" fill="#393D4F"/><path d="M127 295c3.486 1.619 6.551 3.69 9.75 5.813 10.634 6.794 23.053 9.931 35.563 10.75l3.8.253L179 312v1c-24.505 1.012-24.505 1.012-35-5a1439.16 1439.16 0 0 0-4.188-1.875c-4.664-2.396-8.993-5.536-12.812-9.125v-2Z" fill="#232323"/><path d="M269 289c3 1 3 1 4.824 4.16a280.3 280.3 0 0 1 1.863 3.902l.971 2.01c.79 1.639 1.567 3.283 2.342 4.928 3.448.482 6.571.688 10 0 2.456-2.31 3.696-4.92 5-8l1.313-3 .687-2h2c-.52 5.2-2.15 9.637-5 14-4.677 3.118-9.53 2.699-15 2-2.438-1.813-2.438-1.813-4-5l-1.332-2.71C269 291.59 269 291.59 269 289Z" fill="#323337"/><path d="M133 323c2.846.923 5.67 1.872 8.46 2.953l2.727 1.047 2.543 1c9.529 2.914 19.048 3.378 28.958 3.625l3.896.117c3.139.094 6.277.18 9.416.258v1c-19.423 3.237-38.523 1.232-56-8v-2Z" fill="#494D5A"/><path d="m448 192-2 2-1.738-1.285c-6.094-4.207-12.138-7.052-19.075-9.59l-2.46-.903c-7.54-2.669-14.653-3.42-22.602-3.785l-2.664-.13A2327 2327 0 0 0 391 178v-1c20.982-2.132 39.988 2.1 57 15Z" fill="#9A9BA2"/><path d="m397.813 170.813 2.85-.038 2.732-.005 2.464-.013C408 171 408 171 411 173l-1.965.044c-23.104.438-23.104.438-44.984 7.284-2.424.794-3.679.507-6.051-.328 12.867-7.062 25.287-9.177 39.813-9.188Z" fill="#A7ADC2"/><path d="M127 295a279.297 279.297 0 0 1 5 5c5.445 4.518 11.389 7.024 17.89 9.668C153 311 153 311 156 313c-5.276-.518-9.222-1.785-13.938-4.188l-1.85-.933c-3.525-1.829-6.605-3.84-9.65-6.379-2.76-2.187-3.29-2.49-7-2.625-3.676 1.161-6.997 2.685-10.472 4.336-2.67 1.008-4.445.813-7.09-.211 2.424-2.424 3.69-2.35 7-3 2.873-1.227 5.664-2.582 8.477-3.941C124 295 124 295 127 295Z" fill="#ABABAA"/><path d="M268 275h3l10 24 8 1v2h-10a8561.664 8561.664 0 0 1-3.813-8.063l-1.08-2.279A898.666 898.666 0 0 1 271 285l-.931-2.015C268.793 280.135 268 278.16 268 275Z" fill="#393F54"/><path d="m170.5 179.75 3.438-.063c7.49-.034 13.956.931 21.062 3.313v3l-2.219-.656c-9.375-2.41-18.138-2.576-27.779-2.32l-3.049.066-2.745.09C157 183 157 183 155 181c5.02-1.673 10.244-1.227 15.5-1.25Z" fill="#ABACB4"/><path d="M192 179c6 .51 10.609 2.389 16 5l2 .871c8.098 3.674 14.954 9.68 21 16.129l-1 2-1.8-1.723c-9.17-8.542-18.157-14.294-29.982-18.325-5.123-1.762-5.123-1.762-6.218-3.952Z" fill="#A5AAC2"/><path d="M262 284c4.192 3.517 5.919 7.668 8.063 12.563a603.21 603.21 0 0 0 2.035 4.566l.89 2.033c1.122 2.037 2.213 3.366 4.012 4.838 3.192.58 3.192.58 6.688.688l3.574.199L290 309v1a519.13 519.13 0 0 1-6.25.625l-3.516.352c-3.27.023-4.658-.029-7.234-1.977-4.492-6.514-11-16.97-11-25Z" fill="#2B2A2A"/><path d="M384.329 297.369 387 298c1.911.078 3.825.108 5.738.098l3.233-.01 3.342-.025 3.4-.014c2.762-.012 5.525-.028 8.287-.049l-1 3c-10.517 2-20.978 1.962-31-2 3-2 3-2 5.329-1.631Z" fill="#9196A9"/><path d="m354 274 1.746 2.191L358 279l1.973 2.465c4.663 5.518 9.032 9.132 15.547 12.281 2.396 1.212 4.387 2.58 6.48 4.254-9.8-.625-16.416-5.763-23.043-12.715-2.55-2.977-4.351-5.708-5.957-9.285l1-2Z" fill="#A5AABD"/><path d="M348 278c.654 2.207 1 4 .938 6.313.08 3.449 1.034 6.409 2.062 9.687h-3l-2-3-7 17h-1c-.599-5.939 1.51-10.271 3.875-15.563l2.18-5.003 1.03-2.337A187.812 187.812 0 0 0 348 278Z" fill="#A3A5AE"/><path d="m214 274 3 2h-2l-.746 2.191C210.677 286.203 202.828 293.178 195 297c-2.44.67-4.455.892-7 1 2.31-2.61 4.509-3.805 7.688-5.188 8.482-4.13 13.807-10.669 18.312-18.812Z" fill="#A6ABBC"/><path d="m394.063 178.375 2.623.172c2.105.14 4.21.295 6.314.453v1l-3.516.113c-10.912.429-20.836 1.545-31.046 5.7L365 187l-3-2c1.976-.8 3.956-1.59 5.938-2.375l3.34-1.336c7.846-2.717 14.508-3.556 22.784-2.914Z" fill="#43485F"/><path d="M377 208c-1.188 3.564-1.94 3.818-5.063 5.688-8.236 5.316-13.689 11.489-17.937 20.312-.668-1.723-.668-1.723-1-4 1.603-3.26 3.848-6.08 6-9l1.75-2.625C364.488 214.429 371.275 208 377 208Z" fill="#5E606A"/><path d="M133 183c-1.279 3.836-2.63 4.229-6.063 6.25-4.586 2.788-8.397 5.769-12.183 9.563C113 200 113 200 110.777 199.688L109 199c16.632-16 16.632-16 24-16Z" fill="#3E3E41"/><path d="M184 205c12.63 3.727 21.635 8.952 29 20-.375 2.188-.375 2.188-1 4l-1.434-2.195C203.382 216.3 195.552 211.88 184 207v-2Z" fill="#5C5F69"/><path d="M435 183c4.833.49 7.59 1.756 11.438 4.688l2.859 2.175c3.334 2.636 6.594 5.235 9.703 8.137v2c-3.425-.586-5.037-1.716-7.5-4.125-4.3-3.95-9.038-6.626-14.156-9.395L435 185v-2Z" fill="#36363C"/><path d="m134 283 3 2v2l1.691.813c3.37 1.733 6.552 3.757 9.774 5.75 4.8 2.721 9.055 3.792 14.535 4.437-3.01 1.782-4.703 2.258-8.125 1.5-8.588-2.204-15.437-7.622-21.875-13.5l1-3Z" fill="#9DA2B4"/><path d="M599 376c2.835 3.234 3.634 5.907 4.313 10.125l.55 3.195L604 392l-2 2c-2.125-.375-2.125-.375-4-1a1890.33 1890.33 0 0 1-.063-7.938l-.025-2.287c-.009-1.925.036-3.85.088-5.775l1-1Z" fill="#0A0D1A"/><path d="M417 331c-4.65 4.65-13.434 3.184-19.625 3.188l-3.14.037-3.024.005-2.74.013c-2.603-.256-4.234-.926-6.471-2.243l2.2-.076c3.308-.116 6.617-.239 9.925-.361l3.46-.12 3.36-.127 3.079-.11c3.03-.16 3.03-.16 6.206-.753 2.699-.441 4.22-.336 6.77.547Z" fill="#50545F"/><path d="M105 302c3.619.555 4.867 1.693 7.063 4.563 5.7 6.83 12.954 11.627 20.937 15.437-1.68.68-1.68.68-4 1-8.038-3.672-14.697-9.933-21-16l-1.781-1.64C105 304 105 304 105 302Z" fill="#585A65"/><path d="M157 182c-2.615 2.615-5.488 3.207-8.938 4.25-6.12 1.919-11.48 4.369-16.988 7.71L129 195l-2-1c6.937-7.798 19.62-12.506 30-12Z" fill="#BEBEBE"/><path d="M350 282h2c1.191 1.504 1.191 1.504 2.563 3.563 3.441 4.79 7.661 8.041 12.437 11.437l-2 3c-11.811-8.635-11.811-8.635-15-14v-4Z" fill="#3E4358"/><path d="m169.188 177.813 3.173.04c2.547.035 5.093.084 7.639.147v1l-1.86.136c-2.84.214-5.677.445-8.515.677l-2.926.212c-5.811.488-10.945 1.455-16.432 3.458-2.714.619-4.6.222-7.267-.483 7.847-5.232 17.042-5.416 26.188-5.188Z" fill="#292A33"/><path d="m434 284 3 2a815.52 815.52 0 0 1-8 6l-2.813 2.125c-4.69 2.76-10.95 6.422-16.523 5.48L408 299l3.148-1.25c8.67-3.552 15.89-7.306 22.852-13.75Z" fill="#AEB2C1"/><path d="m371 303 1.957.805c9.523 3.57 18.965 4.394 29.043 5.195v1c-12.636 1.232-21.519.591-33-5l2-2Z" fill="#AFAEB0"/><path d="M202 183v3l-1.652-.586c-11.501-3.971-22.249-4.918-34.348-5.414v-1c13.514-1.25 23.124-.279 36 4Z" fill="#454A61"/><path d="m169.258 172.722 2.117.028 2.158.016c6.199.11 12.491.483 18.467 2.234l1 2c-7.273.125-7.273.125-10.719-.469-4.05-.655-8.063-.882-12.156-1.094l-2.375-.13c-1.917-.106-3.833-.207-5.75-.307 2.466-2.466 3.888-2.257 7.258-2.278Z" fill="#313752"/><path d="M380 186c-3.198 1.664-6.47 3.028-9.813 4.375-3.593 1.474-6.99 2.986-10.312 5L357 197l-2-1c3.012-3.338 5.967-5.227 10-7.188l3.125-1.542c4.523-1.998 7.046-2.477 11.875-1.27Z" fill="#343B52"/><path d="M321 308c.878 2.428 1.176 3.57.18 6-2.659 4.075-5.098 7.201-9.18 10l-2-1c3.121-5.421 6.47-10.655 11-15Z" fill="#343B55"/><path d="M190 310c-1 2-1 2-2.695 2.628-6.023 1.334-11.713 1.614-17.868 1.497l-2.767-.027A806.311 806.311 0 0 1 160 314v-1l5-1v-1c3.23-.169 6.458-.335 9.688-.5l2.763-.145a298846489.607 298846489.607 0 0 1 5.145-.263c2.47-.095 4.932-.107 7.404-.092Z" fill="#444"/><path d="M271 297c2.227 2.004 3.118 3.282 4.313 6.125 3.41 3.648 5.051 3.415 9.937 3.75 2.25.069 4.5.119 6.75.125l-1 2c-12.385.905-12.385.905-16.008-1.125-2.804-3.224-3.694-6.7-3.992-10.875Z" fill="#BEBEBE"/><path d="M301 286h2c-.558 4.916-2.14 8.89-4.375 13.25l-.922 1.89c-1.633 3.238-2.625 4.808-5.703 6.86l-2-2 1.766-1.484c2.915-3.283 4.326-6.738 5.984-10.766l.957-2.258A775.18 775.18 0 0 0 301 286Z" fill="#BCBDC1"/><path d="M213 226c3.25 3.738 5.296 7.393 7.25 11.938l1.578 3.59c1.153 3.416 1.412 5.9 1.172 9.472-2.93-2.93-4.014-6.45-5.563-10.25l-.958-2.277c-1.708-4.154-2.956-7.974-3.479-12.473Z" fill="#63656F"/><path d="M192 297h4l-1 3c-2.363 1.168-2.363 1.168-5.313 2.188l-2.925 1.042C184 304 184 304 180 304v-2l-2-1 2.809-.621 3.629-.817 3.62-.808c2.812-.455 2.812-.455 3.942-1.754Z" fill="#39405B"/><path d="M317 256h2c-.666 4.41-2.266 8.266-4.063 12.313l-.853 1.955c-.69 1.579-1.387 3.156-2.084 4.732h-3c1.996-6.719 4.73-12.807 8-19Z" fill="#33384E"/><path d="M133 323c2.846.923 5.67 1.872 8.46 2.953 6.453 2.477 12.704 4.042 19.54 5.047v1c-10.143.688-19.06-2.322-28-7v-2Z" fill="#545763"/><path d="m443 295 2.668 1.094 3.52 1.406 3.48 1.406c3.099 1.017 5.137 1.138 8.332 1.094l3 2v2c-4.585 1.517-7.515-.312-11.625-2.375l-2.063-1c-2.446-1.19-4.879-2.408-7.312-3.625v-2Z" fill="#969798"/><path d="m447 212 3 1a480.346 480.346 0 0 1-4.688 3.938l-2.636 2.214c-2.71 1.872-4.411 2.624-7.676 2.848-1.813-1.438-1.813-1.438-3-3l1-3 4 3v-2l2.188-.25c2.979-.59 2.979-.59 5.437-2.875L447 212Z" fill="#4D505D"/><path d="m303 275 3 2-7 16c-2-4-2-4-.883-7.453.57-1.273 1.157-2.539 1.758-3.797l.895-1.969A370.03 370.03 0 0 1 303 275Z" fill="#383D58"/><path d="M301 269h2c-.505 6.23-3.326 11.455-6 17h-1c-.734-6.755 1.724-11.185 5-17Z" fill="#333957"/><path d="m299 299 1 3c-2.148 3.82-4.181 6.81-8 9-3.453.293-3.453.293-7.25.188l-3.828-.083L278 311v-1l2.45-.078c6.548-.272 6.548-.272 12.55-2.61 2.274-2.63 4.182-5.35 6-8.312Z" fill="#111110"/><path d="M130 294c2.294 1.288 4.585 2.58 6.875 3.875l1.973 1.105c2.656 1.507 4.982 2.85 7.152 5.02v2c-3.893-1.43-7.293-3.247-10.813-5.438l-2.957-1.808L130 297v-3Z" fill="#B9BBC4"/><path d="M223 286c2.968 2.968 4.06 6.587 5.625 10.438l.984 2.353.93 2.268.85 2.072C232 305 232 305 232 308h-2a1218.348 1218.348 0 0 1-3.5-8.188l-1.012-2.33C223.83 293.538 222.51 290.37 223 286Z" fill="#9FA2AE"/><path d="M361 183c-2.272 2.425-4.68 4.275-7.438 6.125l-2.308 1.57c-2.129 1.233-3.852 1.856-6.254 2.305 2.79-6.103 9.012-11.092 16-10Z" fill="#323955"/><path d="M274 293c2.311 1.981 3.065 3.18 4.125 6.125 1.53 3.04 1.53 3.04 4.066 3.484 2.282.243 4.515.381 6.809.391v2c-3.4.35-6.611.51-10 0-3.541-3.628-4.525-7.015-5-12Z" fill="#ADAEB0"/><path d="M127 295v2c-5.878 3.156-11.367 5.953-18 7l-3-2 1.652-.516a113.341 113.341 0 0 0 14.403-5.714C124 295 124 295 127 295Z" fill="#8F9090"/><path d="M201 184c4.143.598 7.182 2.007 10.813 4.063l2.957 1.66L217 191v3a959.037 959.037 0 0 1-6.875-3.313l-1.973-.935c-3.349-1.64-5.042-2.587-7.152-5.752Z" fill="#363E5A"/><path d="m194 178-2 2c-1.88-.184-3.761-.385-5.629-.671-4.268-.592-8.57-.7-12.871-.892l-2.781-.13c-2.24-.105-4.48-.207-6.719-.307v-1c2.666-.197 5.333-.383 8-.563l2.254-.17c6.793-.442 13.082.275 19.746 1.733Z" fill="#858A9D"/><path d="M418 304v2c-3.724 1.73-6.432 2.205-10.52 1.977l-3.095-.157-3.197-.195-3.256-.172c-2.645-.14-5.289-.292-7.932-.453v-1l1.772-.076c2.66-.116 5.319-.239 7.978-.361l2.79-.12 2.694-.127 2.476-.11c2.27-.143 2.27-.143 4.338-.726C414 304 414 304 418 304Z" fill="#4C4C57"/><path d="M435 286h2c-.304 3.245-.563 4.619-3.066 6.8l-2.497 1.512-2.503 1.551L427 297v-5a187.385 187.385 0 0 1 6-4l2-2Z" fill="#42475F"/><path d="m351 271 3 1v4h-2l2 9-2-1v-2l-3-1c-.18-3.947-.094-6.598 2-10Z" fill="#B2B5C2"/><path d="M440 182c4.152 1.442 7.3 3.501 10.813 6.125l2.957 2.195L456 192l-3 2c-9.41-7.298-9.41-7.298-14-11l1-1Z" fill="#9DA0AE"/><path d="M421 177c5.691.285 10.822 2.8 16 5-1.547 1.148-1.547 1.148-4 2a57.444 57.444 0 0 1-7.25-2.375l-1.969-.75A368.925 368.925 0 0 1 419 179l2-2Z" fill="#434655"/><path d="M339 210c.676 1.672.676 1.672 1 4-1.145 2.578-1.145 2.578-2.813 5.25l-1.644 2.703L334 224h-2c.303-6.055 3.278-9.515 7-14Z" fill="#333956"/><path d="m345 250 2 1-7 16h-1c-.817-6.208 2-10.778 5-16l1-1Z" fill="#5F616C"/><path d="M198 187v1c-6.746-.664-13.344-1.719-20-3v-1c6.825-1.718 13.69.055 20 3Z" fill="#313646"/><path d="M202 300c-2.71 3.349-5.996 4.599-10 6-3.938.188-3.938.188-7 0 2.212-2.212 3.929-2.958 6.813-4.125l2.582-1.07c2.685-.83 4.813-.955 7.605-.805Z" fill="#303650"/><path d="M191 298c-5.552 3.702-11.487 3.076-17.938 2.563l-2.072-.159A748.5 748.5 0 0 1 166 300v-1l3.36-.184 4.39-.253 2.21-.12c4.095-.222 4.095-.222 8.111-.99 2.528-.594 4.438-.076 6.929.547Z" fill="#898FA3"/><path d="m369 214 2 1-2.59 2.773-3.348 3.602-1.708 1.828-1.631 1.758-1.508 1.619c-1.318 1.425-1.318 1.425-2.215 3.42h-2c1.423-4.689 4.157-7.516 7.625-10.813l1.563-1.521A587.1 587.1 0 0 1 369 214Z" fill="#252F51"/><path d="m126 193 2 1v2c-3.755 3.689-7.267 6.787-12.563 7.438L113 203c2.383-2.804 5.175-4.272 8.348-6.016 1.848-1.1 3.259-2.345 4.652-3.984Z" fill="#ABAAAA"/><path d="m120 187 3 1-2.336 1.898-3.039 2.477-3.023 2.46c-2.566 2.068-2.566 2.068-4.602 4.165l-3-1a2871.8 2871.8 0 0 1 4.813-4.375l2.707-2.46C117 189 117 189 120 187Z" fill="#AAADBB"/><path d="m437 322 1 2a553.373 553.373 0 0 1-6.125 3l-3.445 1.688c-3.443 1.317-5.787 1.578-9.43 1.312 3.391-2.26 6.915-3.653 10.688-5.125l2.126-.84A2060.91 2060.91 0 0 1 437 322Z" fill="#5F616B"/><path d="M252 318c3.859.575 5.895 2.358 8.75 4.938l2.422 2.152C265 327 265 327 265 329c-4.01-1.342-6.387-3.027-9.313-6.063l-2.113-2.16C252 319 252 319 252 318Z" fill="#4E505D"/><path d="M366 298c4.472 1.418 8.711 3.113 13 5l-1 3c-4.604-1.316-8.183-3.092-12-6v-2Z" fill="#343741"/><path d="m363 218 2 1-1.645 1.758c-3.855 4.21-7.18 7.94-9.355 13.242-.668-1.715-.668-1.715-1-4 1.074-2.254 1.074-2.254 2.688-4.563l1.574-2.316C359 221 360.74 219.541 363 218Z" fill="#565965"/><path d="M213 195c5.011 1.432 6.945 3.984 10 8l-2 2-9-8 1-2Z" fill="#3D4562"/><path d="M257 271c2.914 1.457 3.358 3.508 4.688 6.438l1.386 2.996L264 283l-1 2h-2c-4.592-9.41-4.592-9.41-4-14Z" fill="#353745"/><path d="m347 195 2 2-8 8-3-2a460113855.688 460113855.688 0 0 0 5.273-5.371C345 196 345 196 347 195Z" fill="#3F4661"/><path d="m389.547 180.121 2.558.147 2.645.17 2.691.158c2.187.129 4.373.264 6.559.404v1c-3.457.225-6.916.427-10.375.625l-2.984.195-2.852.157-2.634.158C383 183 383 183 381 181c2.978-.881 5.453-1.067 8.547-.879Z" fill="#A5A7AE"/><path d="M369 177c2 1 2 1 3 3-1.764.725-3.537 1.43-5.313 2.125l-2.988 1.195L361 184l-3-2a629.12 629.12 0 0 1 5.375-2.563l3.023-1.44L369 177Z" fill="#3E4561"/><path d="m461 304 2 1a2020.882 2020.882 0 0 1-4.813 4.875l-2.707 2.742C453 315 453 315 450 317l-3-1 2.809-2.371 3.628-3.067 1.854-1.564c2.925-2.42 2.925-2.42 5.709-4.998Z" fill="#5B5D68"/><path d="M414 309v1c-4.77 1.234-9.425 1.113-14.313 1.063l-2.533-.014c-2.051-.012-4.103-.03-6.154-.049v-1c2.707-.365 5.415-.717 8.125-1.063l2.305-.314c4.432-.554 8.157-.631 12.57.377Z" fill="#C3C2C3"/><path d="M338 263h1c-.291 6.42-1.452 10.621-5 16l-2-1 6-15Z" fill="#6E6F77"/><path d="M223 201c3.444 1.448 5.361 3.277 7.75 6.125l1.86 2.195L234 211l-2 3a1003.64 1003.64 0 0 1-3.375-4.25l-1.898-2.39A34.558 34.558 0 0 1 223 201Z" fill="#A7ABC1"/><path d="m348 197 3 1-11 11-1-3 9-9Z" fill="#B3B8CD"/><path d="M431 193c4.557.525 7.193 2.315 10.813 5.063l2.957 2.222L447 202l-1 4-1.64-2.266c-2.499-2.895-4.84-4.53-8.11-6.484A217.945 217.945 0 0 1 431 194v-1Z" fill="#ACACAB"/><path d="M454 193c3.863.966 4.673 1.276 7.25 3.938l1.578 1.59C464 200 464 200 464 202l-8-1 3-1-5-7Z" fill="#A5A8B6"/><path d="M133 183c-1.26 3.782-2.564 4.256-5.938 6.25l-2.714 1.64L122 192l-2-1 3-1 .875-1.875c2-3.778 4.956-5.125 9.125-5.125Z" fill="#36363B"/><path d="M207 297c2.063.438 2.063.438 4 1a771.212 771.212 0 0 1-5.313 3.5l-2.988 1.969C200 305 200 305 197 305v-2l1.934-1.059 2.504-1.378 2.496-1.372c1.99-1.028 1.99-1.028 3.066-2.191Z" fill="#B0B1B9"/><path d="m426 293 2 1c-1.072 3.454-2.097 4.052-5.375 5.813-4.615 1.511-4.615 1.511-7.625.187l1.938-.875c2.214-.953 2.214-.953 3.062-3.125 2.938-1.688 2.938-1.688 6-3Z" fill="#343B55"/><path d="M253 260c2.96 3.364 3.923 6.692 5 11l-2 2c-4.079-7.055-4.079-7.055-3.75-11l.75-2Z" fill="#3D445E"/><path d="m317 242 3 2-4 10-3-1c.477-1.459.957-2.917 1.438-4.375l.808-2.46C316 244 316 244 317 242Z" fill="#3C4360"/><path d="m320 223 3 1a186.745 186.745 0 0 1-1.25 4.438l-.703 2.496C320 233 320 233 317.89 233.785L316 234c.477-1.459.957-2.917 1.438-4.375l.808-2.46C319 225 319 225 320 223Z" fill="#3E4561"/><path d="m198.75 177.375 2.984.898L204 179v3l-2.012-.621-2.675-.816-2.637-.81c-2.546-.716-5.076-1.27-7.676-1.753 3.638-2.408 5.684-1.883 9.75-.625Z" fill="#3B435F"/><path d="m430 327 2 1c-5.732 2.853-10.599 4.534-17 5 2-3 2-3 4.277-3.695l2.66-.43c2.829-.475 5.333-.965 8.063-1.875Z" fill="#303755"/><path d="m277 295 1.5 1.938c3.488 2.877 6.035 2.764 10.5 3.062v2h-10c-2-4-2-4-2-7Z" fill="#292B32"/><path d="M148 297c7.75 1.875 7.75 1.875 10 3v2c-4.675.326-7.167-.294-11-3l1-2Z" fill="#363C56"/><path d="m422 293 3 2a587.25 587.25 0 0 1-6.25 2.563l-3.516 1.44c-3.097.955-4.307 1.207-7.234-.003a553.123 553.123 0 0 1 6.813-3.125l1.947-.918c1.885-.84 1.885-.84 5.24-1.957Z" fill="#9FA5B7"/><path d="m128 187 3 2c-1.415.961-2.832 1.919-4.25 2.875l-2.39 1.617A56.232 56.232 0 0 1 118 197v-3c2.188-1.824 2.188-1.824 5-3.688l2.813-1.886L128 187Z" fill="#A1A0A2"/><path d="m437 287 2 4a703.622 703.622 0 0 1-4.75 3.438l-2.672 1.933c-2.305 1.457-3.921 2.188-6.578 2.629 2.618-2.772 5.048-5.032 8.25-7.125 3.01-1.646 3.01-1.646 3.75-4.875Z" fill="#A8ACBB"/><path d="m217 282 2 1c-.573 3.87-2.39 6.152-5 9h-2c.615-3.995 2.706-6.745 5-10Z" fill="#373D55"/><path d="M310 274c1 3 1 3 .004 5.48l-1.442 2.707-1.433 2.731L306 287h-1c.45-5.625 1.684-8.615 5-13Z" fill="#222324"/><path d="M189 306c-3.32 2.213-4.074 2.208-7.887 1.977l-2.842-.157-2.958-.195-2.995-.172c-2.44-.141-4.879-.293-7.318-.453v-1c2.875-.196 5.75-.382 8.625-.563l2.45-.17c4.487-.273 8.494-.235 12.925.733Z" fill="#565A70"/><path d="M349 289c1.106.936 2.21 1.874 3.313 2.813l1.863 1.582A87.495 87.495 0 0 1 359 298c-3 1-3 1-5.563-.188-2.502-1.86-3.437-2.902-4.437-5.812v-3Z" fill="#313132"/><path d="M420 208c4.672 2.132 8.593 4.025 12 8l-2 1c-2.475-1.114-4.679-2.582-7-4v-2l-3-1v-2Z" fill="#5F6169"/><path d="M216 271c2.18 1.759 2.937 2.694 3.512 5.48l.175 2.707.2 2.731L220 284l-1-3h-2v-6h-2l1-4Z" fill="#BCBECA"/><path d="M318 222h2c-.607 4.86-2.728 8.74-5 13-.93-2.551-1.086-3.74-.223-6.36l1.16-2.39 1.153-2.422L318 222Z" fill="#A6AABC"/><path d="M439 194c1.486.927 2.963 1.867 4.438 2.813l2.496 1.582C448 200 448 200 449 203c-2.869-1.383-5.56-2.921-8.25-4.625l-2.14-1.352L437 196l2-2Z" fill="#2E2D2B"/><path d="M186 173c10.558.779 10.558.779 15 3v1c-5.273-.445-10.018-1.084-15-3v-1Z" fill="#A7ACC1"/><path d="M357 298c4.194.671 7.403 2.856 11 5l-2 3a728.877 728.877 0 0 1-3.938-2.875l-2.214-1.617C358 300 358 300 357 298Z" fill="#282828"/><path d="m358 190 3 1c-3.197 2.649-6.395 4.94-10 7l-2-2a344.799 344.799 0 0 1 4.313-3.063l2.425-1.722L358 190Z" fill="#A5AABF"/><path d="m292 295 2 3-4 6-10-1v-1l1.863-.008c2.508-.12 4.717-.31 7.137-.992 2.162-2.903 2.162-2.903 3-6Z" fill="#A0A1A7"/><path d="m296 297 2 4c-3.75 5.875-3.75 5.875-6 7l-2-2 1.875-1.688c2.186-2.378 3.113-4.276 4.125-7.312Z" fill="#ABABAB"/><path d="m116 295 2 4c-6.625 3.125-6.625 3.125-10 2l8-6Z" fill="#B6B8C2"/><path d="M131 288c8.446 6.15 8.446 6.15 12 10-3.498-.634-5.84-2.052-8.75-4.063-.8-.547-1.598-1.095-2.422-1.66L130 291l1-3Z" fill="#A3A7BA"/><path d="m599 103 4 1v5l-4 1v-7Z" fill="#282B33"/><path d="m199 297 2 2a407.78 407.78 0 0 1-4.813 2.563l-2.707 1.44C191 304 191 304 188 303a61.29 61.29 0 0 1 7.188-4.125l2.167-1.07L199 297Z" fill="#999EB3"/><path d="M259 257c2.228 2.228 2.692 3.658 3.625 6.625.26.817.52 1.635.79 2.477L264 268l-2 1a327.09 327.09 0 0 1-2.063-4.313l-1.16-2.425C258 260 258 260 259 257Z" fill="#979CB2"/><path d="M257 259c3.282 1.641 3.746 4.693 5 8v3h-2c-2.153-3.858-3.393-6.551-3-11Z" fill="#2D3654"/><path d="M248 242c2.228 2.228 2.692 3.658 3.625 6.625.26.817.52 1.635.79 2.477L253 253h-3a420.544 420.544 0 0 1-1.563-4.375l-.878-2.46C247 244 247 244 248 242Z" fill="#9EA2B5"/><path d="M428 177c4.128.607 7.374 1.94 11 4l1 2c-4.128-.607-7.374-1.94-11-4l-1-2Z" fill="#ADB1C0"/><path d="m159.75 304.875 2.984.617L165 306v1c-5.791 1.016-9.458.963-15-1 3.539-2.275 5.71-1.99 9.75-1.125Z" fill="#3F455F"/><path d="M260 273h2c3.348 6.964 3.348 6.964 2 11a417.885 417.885 0 0 1-2-3.813l-1.125-2.144C260 276 260 276 260 273Zm9-7h2c2.125 6.75 2.125 6.75 1 9h-2c-1.478-2.957-1.06-5.742-1-9Z" fill="#B5B7C3"/><path d="M256 238c2.34 2.127 3.807 4.062 5 7v3c-3-1-3-1-4.188-3.313C256 242 256 242 256 238Z" fill="#A8ACBD"/><path d="m362 190 2 1v2c-5.273 3.223-5.273 3.223-7 4l-2-1c2.257-2.335 4.28-4.187 7-6Z" fill="#2D344F"/><path d="M417 184v3l-13-2v-1c4.63-1.016 8.345-.838 13 0Z" fill="#373836"/><path d="M371 176c-2.703 2.703-5.425 3.706-9 5-2.227-.418-2.227-.418-4-1 8.262-4.592 8.262-4.592 13-4Z" fill="#AEB3C7"/><path d="M105 302c2.54.385 3.728.701 5.484 2.629l1.266 1.933 1.297 1.942L114 310c-4.254-.809-6.148-2.752-9-6v-2Z" fill="#5F636F"/><path d="M143 300c1.46.45 2.918.91 4.375 1.375l2.46.773C152 303 152 303 154 305c-4.626.323-7.28-.155-11-3v-2Z" fill="#2D3551"/><path d="m226 193 7 6-3 2c-2-1.75-2-1.75-4-4v-4Z" fill="#3A4261"/><path d="M155 181c-3.264 1.883-6.244 2.673-10 3l-2-2c4.462-1.806 7.31-2.117 12-1Z" fill="#434344"/><path d="m386.688 297.938 2.449.59L391 299l-2 2c-4.138-.301-6.518-.679-10-3 3.297-1.099 4.405-.871 7.688-.063Z" fill="#989DAE"/><path d="M296 291h2c-.498 3.735-.875 5.812-3 9h-2l3-9Z" fill="#373A42"/><path d="M296 286h2c-.607 4.128-2.038 7.332-4 11-.955-2.17-1.144-3.563-.398-5.824.757-1.744 1.574-3.462 2.398-5.176Z" fill="#B1B3C0"/><path d="M270 282c1.668 2.502 2.624 4.411 3.625 7.188.26.715.52 1.43.79 2.167.192.543.386 1.086.585 1.645l-2 1a518.545 518.545 0 0 1-2.063-4.875l-1.16-2.742C269 284 269 284 270 282Z" fill="#9C9FAD"/><path d="M332 279h2c-.45 1.46-.91 2.918-1.375 4.375l-.773 2.46C331 288 331 288 329 290c.75-7.625.75-7.625 3-11Z" fill="#5E616B"/><path d="M214 194c4.379.505 6.817 3.178 10 6l-2 2a1154.753 1154.753 0 0 1-4-3.438l-2.25-1.933L214 195v-1Z" fill="#B5B9CE"/><path d="m355 187 2 2-10 6-1-2 9-6Z" fill="#9CA2BA"/><path d="M211 182c4.814-.566 7.203 1.174 11 4l-3 2a809.016 809.016 0 0 1-4-2.438l-2.25-1.37L211 183v-1Z" fill="#9BA1B7"/><path d="m599 384 3 1v7h-3v-8Z" fill="#35373E"/><path d="M139 300a135.73 135.73 0 0 1 7 3v3c-3.46-1.25-6.147-2.675-9-5l2-1Z" fill="#A8AAB4"/><path d="M262 269c2.463 2.463 2.998 4.707 4 8l-3 1-3-8 2-1Z" fill="#3C445D"/><path d="M206 219c3.337 1.38 5.223 2.82 7 6-.426 2.133-.426 2.133-1 4a1612.684 1612.684 0 0 1-3-4.438l-1.688-2.496C206 220 206 220 206 219Z" fill="#565964"/><path d="M453 194c2.622 1.049 3.794 1.65 5.25 4.125L459 200c-2.886-.398-3.822-.79-5.75-3.063L452 195l1-1Z" fill="#404044"/><path d="M143.375 185.313 145 186c-2.463 2.463-4.707 2.998-8 4l-2-2c5.415-3.077 5.415-3.077 8.375-2.688Z" fill="#B1B0B0"/><path d="M389 184v1l-12 1c2.328-4.656 7.777-2.623 12-2Z" fill="#2A2D37"/><path d="M142 180c-2.647 2.647-5.562 3.6-9 5l-1-3c3.402-2.094 6.053-2.18 10-2Z" fill="#3C3C46"/><path d="m420 174 9 2v3l-10-3 1-2Z" fill="#A2A6B8"/><path d="m310 321 1 2c-1.688 2.5-1.688 2.5-4 5-2.75.313-2.75.313-5 0l2.313-1.813c2.035-1.657 3.885-3.29 5.687-5.187Z" fill="#63656F"/><path d="m206 288 2 1c-2.625 4.875-2.625 4.875-6 6l-1-3 5-4Z" fill="#444A62"/><path d="M301 276c.688 1.625.688 1.625 1 4-1.438 3.25-1.438 3.25-3 6h-2c.476-1.48.956-2.96 1.438-4.438l.808-2.496C300 277 300 277 301 276Z" fill="#A3A6BA"/><path d="M447 203h2c-.376 2.782-.673 4.588-2.438 6.813C445 211 445 211 443 211l4-8Z" fill="#6F6E6D"/><path d="M342 206c2.188.313 2.188.313 4 1l-5 6-2-4c1.25-1.563 1.25-1.563 3-3Z" fill="#3C4460"/><path d="M230 204c4.875 3.625 4.875 3.625 6 7-1.813-.188-1.813-.188-4-1-1.75-2.563-1.75-2.563-3-5l1-1Z" fill="#313856"/><path d="m440 187 8 5-2 2-8-5 2-2Z" fill="#9D9D9D"/><path d="M370 187c-1.29.672-2.581 1.337-3.875 2l-2.18 1.125C362 191 362 191 360 191v-2c5.893-3.348 5.893-3.348 10-2Z" fill="#B6BCCD"/><path d="M413 181c3.735.498 5.812.875 9 3-2.915.81-4.461 1.218-7.313.063L413 183v-2Z" fill="#A0A0A0"/><path d="M385 175v2l-10-1v-1c3.695-.95 6.305-.95 10 0Z" fill="#414862"/><path d="m317 312 1 4c-2.438 2.75-2.438 2.75-5 5l-2-1 6-8Z" fill="#63656C"/><path d="m196 297-1 3c-2.375.625-2.375.625-5 1l-2-2c3.088-1.765 4.233-2 8-2Z" fill="#303853"/><path d="m299 284 2 2c-.33 3.297-.623 4.623-3 7-1.033-2.788-1.045-3.868-.063-6.75L299 284Z" fill="#424759"/><path d="M307 249c.688 1.625.688 1.625 1 4-1.438 3.25-1.438 3.25-3 6-.688-1.625-.688-1.625-1-4 1.438-3.25 1.438-3.25 3-6Z" fill="#A7AABC"/><path d="M312 241c2 4 2 4 1.313 6.188C312 249 312 249 309 250l3-9Z" fill="#424864"/><path d="M251 238c2.686 2.686 3.06 5.376 4 9l-2 1-3-9 1-1Z" fill="#969CB4"/><path d="M206 191c2.938.813 2.938.813 6 2l1 3c-2.375-.25-2.375-.25-5-1-1.313-2.063-1.313-2.063-2-4Z" fill="#313953"/><path d="m122 188 1 2-2 2-1 2c-3.063.625-3.063.625-6 1 2.578-2.648 4.916-4.944 8-7Z" fill="#47474C"/><path d="m435 183 6 1 1 4-7-3v-2Z" fill="#3B3C45"/><path d="M381 181v1l-10 2 1-3c3.478-1.16 5.459-.708 9 0Z" fill="#383F58"/><path d="M112 310c3.356.6 5.378 1.846 8 4l-1 3a858.147 858.147 0 0 1-3.5-2.938l-1.969-1.652L112 311v-1Z" fill="#50525E"/><path d="M427 306c-2.174 2.5-3.73 3.436-7 4v-3c3.625-2.125 3.625-2.125 7-1Z" fill="#333"/><path d="m215 290 1 3-4 4-3-1 6-6Z" fill="#BFC1C8"/><path d="M215 276h2c-.375 2.938-.375 2.938-1 6l-2 1-2-2c1.375-2.5 1.375-2.5 3-5Z" fill="#43485E"/><path d="M313 267c1.208 3.623.543 4.641-1 8h-3c1.75-5.75 1.75-5.75 4-8Z" fill="#2B2E3C"/><path d="M255 252c2.377 2.377 2.67 3.703 3 7l-2 2c-2.125-5.625-2.125-5.625-1-9Z" fill="#3F4763"/><path d="M223 247c2.686 2.686 3.06 5.376 4 9h-3l-1-9Z" fill="#70727A"/><path d="m432 216 5 3 1-2 1 3-4 2c-1.5-1.313-1.5-1.313-3-3v-3Z" fill="#5D5E67"/><path d="M386 205v2c-4.43 2.092-4.43 2.092-7.313 1.625L377 208c6-3 6-3 9-3Z" fill="#5B5C65"/><path d="m427 326 2 1c-2.55 2.354-3.71 2.983-7.25 3.188L419 330c2.689-1.792 4.953-2.984 8-4Z" fill="#6B6E77"/><path d="m337 304 .75 1.75c1.417 2.55 3.126 4.268 5.25 6.25-2.962-.613-4.38-1.254-7-3l1-5Z" fill="#646875"/><path d="m422 301 2 3-6 2-1-3 5-2Z" fill="#3E3F50"/><path d="M432 301c-2.313 2.063-2.313 2.063-5 4l-3-1c1.855-3.71 4.208-4.264 8-3Z" fill="#AEAEB5"/><path d="M290 294h2c-.375 2.938-.375 2.938-1 6l-2 1-2-2c1.375-2.5 1.375-2.5 3-5Z" fill="#383D4F"/><path d="m194 294 3 2c-4.43 2.092-4.43 2.092-7.313 1.625L188 297l6-3Z" fill="#9CA2B4"/><path d="m251 247 3 1 1 7-2-1a128.606 128.606 0 0 1-2-7Z" fill="#2E3656"/><path d="M335 217c1 3 1 3 .063 5.188L334 224h-2c.375-2.938.375-2.938 1-6l2-1Z" fill="#2A3251"/><path d="M226 208h3c2 3 2 3 1.625 5.188L230 215c-4-4.75-4-4.75-4-7Z" fill="#303854"/><path d="M340 204c-1.152 2.468-2.048 4.048-4 6l-3-1c4.75-5 4.75-5 7-5Z" fill="#363D59"/><path d="M449 188c2.884 1.293 4.872 2.66 7 5l-3 1-5-5 1-1Z" fill="#9598A6"/></svg>