<svg xmlns="http://www.w3.org/2000/svg" viewBox="0 0 1280 511"><path fill="#212f5f" d="M45 101h278.8l82.3-.1h116.6c5.2 0 5.2 0 6.3 1.1l.1 4.7V391c-.1 2-.1 2-1.1 3l-7.6.1H181.7L46 394a15 15 0 0 1-2.2-9v-30.5L44 336v-26.7l.3-43.2.2-42v-15.6z"/><path fill="#e3e3e4" d="M212.8 196.7c16.2 12.7 23.6 27.5 31.4 46l2.2 5 2 4.8 1 2.3 4.9 12.2 4 9.6.8 2 1.9 4.3 2.8 6.6 1.9 4.2.8 2q2.7 5.9 6.5 11.3v2c3.8 1.2 7.5 1.2 11.4 1.3l4 .1c4.3-.5 5.7-1.2 8.6-4.4q2.2-3.6 4-7.4l1-2.2a184 184 0 0 0 6.7-16q2.9-7.3 6.3-14.6l6.7-15.7 6.7-15.7 1.3-3.1c8.2-18.9 21-34 40.2-42.2A77 77 0 0 1 447 202c-.5 4.7-2.7 7.7-5.6 11.3l-1.2 1.7-3.2 4a44 44 0 0 1-8.4-5.3 57 57 0 0 0-44.8-8.3 46 46 0 0 0-27.2 19.8c-6.6 11.2-11.3 23.3-16.4 35.2l-4.2 10-10.7 25.2-2.3 5.3-2.4 5.8c-4.2 10-12.1 19-22.1 23.4a51 51 0 0 1-31.4-1.2L263 326l-2.2-1.6a47 47 0 0 1-14.3-22q-5-13-10.9-25.6-6.3-13.9-12-27.9c-7.9-19-15-33.5-34.6-41.9-11-4-27-4.1-37.7.7L149 209l-2.7 1.5q-6.7 4-13.3 8.5l-11-14c4-8.1 13.8-13.1 22.1-16.1l9.9-2.9 2.3-.7a72 72 0 0 1 56.5 11.4"/><path d="M1065.8 127.7h3.2a62 62 0 0 1 45.2 19.5c14.3 16.6 15.9 35.7 14.8 56.8a59 59 0 0 1-19 37 78 78 0 0 1-24 13l-2.1.7a73 73 0 0 1-54.9-8.7c-15-9.3-22-24.5-26-41a72 72 0 0 1 8.8-49.7l3.2-4.3 2-2.5a60 60 0 0 1 48.8-20.8m-26 36.9a38 38 0 0 0-8.8 21.4l-.1 2.4a45 45 0 0 0 9.1 30.6 34 34 0 0 0 26 10.4c10-.1 17.7-2.3 25-9.4 7-8.5 9.6-17.4 9.4-28.4v-2.8a36 36 0 0 0-11-26.7c-9.1-8-19.6-7.7-31-7.3-7.9.6-13.4 4.1-18.6 9.8m111.6-36.5c4.6 1.6 7.4 4.6 10.5 8.3 5.2 6 11 11.6 16.6 17.2l3.6 3.6 9.4 9.4 11.3 11.3L1220 195l1-63a15 15 0 0 1 8.6-2.3h13.2c2.4.3 4 1.2 6.2 2.3l.1 47.2v41l.1 10.2v20.5c-.2 2.1-.2 2.1-2.2 4.1-3.3 0-3.3 0-7-1-2.4-2.6-2.4-2.6-3.6-4.3q-2.3-2.9-5.3-5.1-7.5-6.6-14-14-7.7-8.7-16.1-16.6c-12.2-12-12.2-12-17.3-18q-2.5-3-5.4-5.7l-1.9-1.9-1.4-1.4v2.4l-.3 22.5-.1 11.6-.2 11.2v10.2l-.1 3.4c-.3 2.7-.3 2.7-2.3 4.7-2.5.2-2.5.2-5.7.2h-6.9l-3.6-.1-8.8-.1c-1.2-2.4-1.1-4-1.1-6.8v-9.9l-.1-11.6v-44.5l-.1-16.7v-30.3c.5-3.5 2-5.2 5.7-5.1m-478.8 1.6h25.7c31.2-.2 31.2-.2 44.7 8.3l2.8 1.7c9.4 9.7 11.7 21.2 11.6 34.3-.4 11-3.5 21-11.4 29-11.6 9.8-25 10.2-39.4 10.1h-8.4c-2.2-.1-2.2-.1-5.2-1.1v22.8l.1 8.4v2.6l-.1 6.2c-1.8 1.8-4.4 1.1-6.8 1.1h-17.7c-2.5-.1-2.5-.1-3.5-1.1l-.1-4.7v-9.9l-.1-9.7v-46.5l-.1-16.8v-30.3l.3-2.1c3.2-2.1 4-2.3 7.6-2.3M693 156v31l11 .2h3.5c7.2.1 12.2-.4 17.9-5.2 3.8-4.8 3.1-11.2 2.6-17a14 14 0 0 0-8.7-8.4c-4.8-1.3-9.8-.9-14.7-.8zm292.7-15.7c7.8 6.5 7.8 6.5 8.9 11.3-.9 3.5-2.6 4.4-5.6 6.4l-3 2-3 2-2.4 1.7c-5 3.4-5 3.4-7.6 3.1-3.3-1.3-5.6-3.7-8.3-6a35 35 0 0 0-21.1-5.2H941c-8.8.2-14.8 2.1-21.4 8.1-8.1 9-10 19.1-9.9 31 .9 10.8 4 19 12.3 26.3 9.4 6.8 18.6 8 30 7a31 31 0 0 0 18-10.5c2-1.5 2-1.5 4.4-1.5a69 69 0 0 1 20.6 14c-.8 6.3-4.3 9-9 13-16.8 12.2-35.5 14.9-55.7 12.6a64 64 0 0 1-40-26.4A76 76 0 0 1 882 172c3-9.3 7.3-17.7 14-25l1.5-1.8c21.2-23.8 63.9-23.2 88.2-5"/><path fill="#aeb2c3" d="M171.3 170.7h3.2A84 84 0 0 1 233 196l2.3 2.3c11 11.4 16.6 25.6 22.8 40A849 849 0 0 0 281 287l4 8h2l.7-1.8 18.7-44.3 4.1-9.6c12-28.2 12-28.2 17.6-34.7l2-2.5q3.3-3.7 6.9-7.1l2-2a81 81 0 0 1 34.4-19.6l2.7-.8c13.4-3 29.6-3.3 42.9.4l2.8.8A91 91 0 0 1 464 200v2l-2.8.4-3.6.5-3.6.6c-3 .3-3 .3-5 1.5l-.6-2.2c-1.8-3.6-4.2-5.2-7.5-7.2l-1.9-1.2c-7-4.2-14.3-7-22-9.4l-3.3-1.1A77 77 0 0 0 357 194a114 114 0 0 0-10 8l-2 1.7c-9 8.4-13.8 19.8-18.7 30.9l-1.7 3.7q-3.9 9-7.5 17.9l-7.5 17.8-3 7C296 306 296 306 291 309c-3.3.5-3.3.5-7 .6h-3.6c-3.7-.7-5-1.6-7.2-4.6q-3.5-6-6.2-12.4l-1.4-3.2q-10-22.5-19.1-45.2l-4.4-10.5-1.3-3.2A75 75 0 0 0 210 193l-2.2-1.4a78 78 0 0 0-57-6.6c-9.9 3-19.3 7.5-27 14.6-3 2.7-4.4 3.4-8.5 3.7A92 92 0 0 1 105 202v-2h2l.7-1.7c7.8-13.6 28-21.4 42.3-25.3l2-.6a76 76 0 0 1 19.3-1.7"/><path d="M784.6 130.1h2c2 .2 2 .2 5.4.9 2.9 4 4.5 8.5 6.2 13l1.8 4.9 1 2.5 5.1 13 1 2.5 3.2 8 2.2 5.3 4 9.8.7 2.1 2 4.8c.8 2.1.8 2.1.8 5.1h2l.3-2.5q1.4-6.3 4.1-12.3l2.2-5.3 1.2-2.9 6.3-16.2q4.3-11.4 8.9-22.8l.8-2.1c1.2-2.8 2-4.8 4.2-6.9 8.9-2.4 19-1.1 28 0 1.4 3.6.9 5.8-.6 9.1l-2.4 5.1-2.8 6-1.5 3.2q-4.3 9-8.3 18.2l-3 6.5-11.7 26-5.2 11.7-4.2 9.2-4 8.8-2 4.5-2.9 6.6-.9 2c-2.8 6-2.8 6-5.5 8.1-2.4 0-2.4 0-5-1-3.8-5-6-10.4-8.4-16.1q-4.3-10.4-9.3-20.3-4.4-9-8.4-18.5l-1.1-2.7-2.2-5.3q-3.6-8.3-7.8-16.5a595 595 0 0 1-9.7-20.5l-2-4.4-3-6.5-1-2A18 18 0 0 1 763 132c4-4 16-2 21.6-1.9"/><path fill="#14204b" d="M45 101h483l1 3-482-1v288h481v3H46c-1.9-3.8-2.2-5-2.2-9v-30.7l.3-45.1.3-64z"/><path fill="#e3e3e3" d="M435 283c4.1 1.4 7.1 3.4 10.6 6.1q7.8 6 16.2 11.3l2.2 1.6v2l-5 3-5.7 4.8A85 85 0 0 1 391 332c-20.4-2.1-36-10.6-52-23a39 39 0 0 1 4-12.9l1.7-3.5 1.3-2.6 2 4h3v2l1.8.3c2.5.8 3.8 1.8 5.8 3.4A64 64 0 0 0 407 313q17.7-3 31.7-14.2c2.3-1.8 2.3-1.8 4.3-1.8v-2q-5.8 3.1-11.1 7a54 54 0 0 1-32.2 9H391v-1l3.2-.3c15-1.5 32.8-4.1 43.7-15.8l1.1-1.9c-.7-2.7-.7-2.7-2-5a46 46 0 0 0-8.6 5.4q-7.4 5.5-16.4 7.6c-2.3-.4-2.3-.4-4-1l3.1-1.2A68 68 0 0 0 435 283m-301 0-4 10a69 69 0 0 0 42.4 15.6l3.4.1 8.2.3c-6.8 4.5-18.5 2.8-26.3 1.6A74 74 0 0 1 130 297l-3-2a58 58 0 0 0 37.6 18.3c18.3.2 35.3-3.4 49-16.2l2.3-2.3c2.4-2 4-2.5 7.1-2.8 4.2 4.8 7 10.7 7 17a48 48 0 0 1-5.6 4.8l-1.8 1.3c-6.1 4.5-12.7 7.8-19.6 10.9l-2.6 1.2a81 81 0 0 1-56.5.7A91 91 0 0 1 109 305v-2l-3-1c25.1-19 25.1-19 28-19"/><path d="M1238.6 294.3q4.9 2.5 8.4 6.7l2-7c1.9-.6 1.9-.6 4-1 2.6 2.6 2.3 3.8 2.3 7.5v43.4c0 10.1-1 19-8.3 26.4a31 31 0 0 1-22 6.7 30 30 0 0 1-21.7-12 15 15 0 0 1-2.3-8c1-1 1-1 3.8-1.6 3.2.6 3.2.6 4.5 2.3l2.4 4.3c2.4 3.6 5.8 4.6 9.7 5.7 7.1.8 14 .2 20.6-2.7 1.3-1.8 1.3-1.8 2-4l1.6-3.6c1.8-4.8 1.7-9.4 1.4-14.4l-1.3 1.2c-7.7 7-13.5 8.5-24 8.2a27 27 0 0 1-17.6-9 34 34 0 0 1-7.5-22.7c1.6-10.8 4.8-18.4 13.4-25a31 31 0 0 1 28.6-1.5m-29.3 12.6a28 28 0 0 0-5.1 18.4 30 30 0 0 0 8.1 15.1 28 28 0 0 0 20.8 3.3c6-1.8 9.4-5.6 12.9-10.6 3-6.2 2.9-13.2.9-19.7-3.7-6.6-7.4-11.2-14.9-13.3-8.5-1.2-16.5.3-22.7 6.8"/><path fill="#000100" d="M719.2 277.4A40 40 0 0 1 734 295c.2 2.9.2 2.9 0 5-3 .6-3 .6-7 0q-2.9-3.5-5.3-7.5a28 28 0 0 0-17.1-11.2 35 35 0 0 0-26.5 5.9 30 30 0 0 0-10.3 18.8c-.6 11.1.1 19.8 6.4 29.3a37 37 0 0 0 23.6 10c8.1-.2 16.3-2.6 22.2-8.3 3.2-3.7 5.5-7.4 7-12h8a32 32 0 0 1-10.9 20.4c-11.1 8.7-21.5 9.4-35.1 8.6-8.7-1.2-16.4-7-22.1-13.4a46 46 0 0 1-8.6-34 43 43 0 0 1 15.4-27.7 42 42 0 0 1 45.5-1.5"/><path fill="#000001" d="M598 101h5c1.3 5.8 1.1 11.6 1.1 17.5v113.2l.1 41.3v116.9c-.2 2.1-.2 2.1-2.2 4.1l-4-1z"/><path fill="#a7aab9" d="M216 271c3.3 2.7 4.6 6.2 6.1 10l.9 2 1.8 4.3 2.7 6.6 1.8 4.1.8 2a19 19 0 0 1 1.9 8h-2l-1.2-3-1.6-4-.8-2-2.4-5c-2.9-1.3-2.9-1.3-5.2 0a52 52 0 0 0-6.1 5.2 67 67 0 0 1-47.7 15.2 62 62 0 0 1-38-17.4v-2q5.1 2.5 9.8 5.8c14.2 8.9 27.7 10 44.2 9.2h-1.7c-18.9-.4-36-3.5-50.3-17l5-10 3 2v2l1.7.8q5 2.7 9.8 5.8c10.3 5.8 26 6.5 37.6 3.5A53 53 0 0 0 216 271"/><path fill="#a9acb8" d="M351 271c3.7 1.2 4 2.2 5.8 5.6a46 46 0 0 0 27.6 20.8c5 1.1 10 .9 15.1.7h6.5l2.8-.2c2.2.1 2.2.1 3.2 1.1a54 54 0 0 0 20.1-10.6c1.9-1.4 1.9-1.4 5.9-1.4l2 6a66 66 0 0 1-38 17c13 1.2 26.6-5.8 36.3-13.9 1.7-1.1 1.7-1.1 4.7-1.1v2l-6 4.4-1.8 1.2a68 68 0 0 1-50.4 11A73 73 0 0 1 354 297l-3-1v-2h-3l-2-3-7 17h-1c-.6-5.8 1.4-10 3.7-15.1l2.2-5 1-2.6 4.1-9.5 1.2-2.8z"/><path fill="#373e5b" d="M167.6 172.9a86 86 0 0 1 62.8 23.4c12.5 12.2 19.2 27.8 25.6 43.7l3.4 8 1 2.4 13.5 31.7 2.8 6.5L281 299h6q6.1-12 11.1-24.5l5-12 1-2.5c21-50.6 21-50.6 34.9-64l2.2-2.2a82 82 0 0 1 58.2-21.1c22.3.5 41.8 9.3 58.3 23.9 1.3 1.4 1.3 1.4 1.3 3.4-3.4-.6-5-1.7-7.4-4-17.7-16-40.5-20-63.6-19.2-16.7 1-32.8 9-45 20.2l-2.4 2.1a90 90 0 0 0-20.1 32.4l-1.8 4.2-4.7 11-5 11.6-6.7 15.6-3.4 8-1.9 4.3-2.8 6.7-.9 2a20 20 0 0 1-4.3 7.1c-2.4.2-2.4.2-5.1.1H281l-2.1-.1a651 651 0 0 1-15.2-33.8l-.9-2.2-8.5-20.3q-3.7-9-7.8-17.8l-1.3-3a77 77 0 0 0-43.3-42.9l-13-4-1.9-.5a81 81 0 0 0-51 6.5l-2.6 1.3A80 80 0 0 0 113 200c-2.1-.4-2.1-.4-4-1a86 86 0 0 1 58.6-26.1"/><path d="M794.8 297.2A31 31 0 0 1 806 316c1 10.5 0 20.3-6.7 28.9-5.2 5.5-12 8.8-19.4 9.3-10.2.3-17.6-.8-25.3-7.9-7-7.8-8.7-15.9-8.6-26.3.7-9.1 4.2-15.6 10.8-21.8a32 32 0 0 1 38-1m-36.1 10a26 26 0 0 0-5.7 18.4c.9 6.8 3.9 11.7 9 16.3 6.7 4.7 13 4.9 21 4.1 6.7-1.7 10.5-6.2 14-12 1.2-3.6 1.2-7 1.3-10.8V321c0-5.9-1.2-9.8-5.2-14.1l-2-1.8-2-1.7c-9.7-7-22.4-4.7-30.4 3.7m167.5-13.5c6 3.2 8.6 8 10.8 14.3l-1 3h-7l-.7-1.7-1-2.2-1-2.2c-2-2.9-4-3.6-7.3-4.4-5.6-.7-10.7-.5-16 1.5-2.3 1.5-2.3 1.5-3 4-.2 3.6-.2 3.6 1 7 5 4 11.5 5 17.5 6.7 7.3 2 14.5 4.4 18.5 11.3 1.3 4.6 1.2 8.1 0 12.8a19 19 0 0 1-11.2 9.3 41 41 0 0 1-25-1 31 31 0 0 1-10.3-10.7c-.6-2.8-.3-4.7.5-7.4h7l1.1 3.8c1.3 3.4 1.7 4 4.8 6.1l3.1 1.1 1.9.7a29 29 0 0 0 18.1-2.7c2.3-2.9 2.3-2.9 1.9-6.5-1-4-1.5-4.4-4.9-6.5-2.3-.9-2.3-.9-4.7-1.4l-2.7-.8-5.6-1.4a36 36 0 0 1-18-9.4c-2-3.8-2.1-7.8-2-12 1.7-5.2 4.6-7.8 9-11a35 35 0 0 1 26.3-.3"/><path fill="#a1a6b9" d="M171.6 170.6h3.1A84 84 0 0 1 233 196l2.3 2.3c11 11.4 16.6 25.6 22.8 40A849 849 0 0 0 281 287l4 8h2l.7-1.8 18.7-44.3 4.1-9.6c12-28.2 12-28.2 17.6-34.7l2-2.5q3.3-3.7 6.9-7.1l2-2a81 81 0 0 1 34.4-19.6l2.7-.8c13.4-3 29.6-3.3 42.9.4l2.8.8c12.7 3.8 23.8 10 34.2 18.2l-3 2-1.5-1.3c-18.5-15.3-41-20.2-64.5-18.7a86 86 0 0 0-56.3 31.9q-3.9 5.1-6.7 10.8l-1.4 2.7C316.3 232 311.2 245 306 258l-9.8 23.5-2.7 6.5-1.7 4-1.4 3.4C289 298 289 298 287 300h-6q-5.8-11.5-10.6-23.5l-1.9-4.4-13.3-31.8-1-2.6-2.4-5.7c-9.3-22.7-22.6-41.1-45.8-51.2a90 90 0 0 0-68-.6 88 88 0 0 0-28 18.8l-3-1a100 100 0 0 1 39-24l3-1a82 82 0 0 1 22.6-2.4"/><path fill="#353d59" d="M216.8 196.4a82 82 0 0 1 24.4 33l1.4 3.2 11.8 28.3L265 286l1.7 3.8c4 9.8 4 9.8 10.2 18.2l6.8.4 3.7.1c4.5-.7 5.5-2 8.5-5.5q2.3-4.2 4-8.6l1.1-2.5 3.4-8 2.3-5.2 10-23.8 6.8-16 1.7-4c8.6-20.4 20.9-38.6 42.2-47.3A79 79 0 0 1 431 189a86 86 0 0 1 18 12v2a71 71 0 0 1-9-5.3 78 78 0 0 0-57-11.7 72 72 0 0 0-43.6 28.7c-7 11.8-12.2 24.5-17.5 37q-5.3 12.7-10.9 25.1l-5.6 13-4.8 10.4-1.7 3.6a17 17 0 0 1-6.9 7.2c-3.6.5-3.6.5-7.6.4h-3.9a14 14 0 0 1-7.5-2.4c-5-7.1-8.2-15.6-11.7-23.6l-2.5-5.6q-5-11.2-9.8-22.8l-6.4-15.3-2-4.6c-8.5-20.6-19.3-37.4-40.8-46.3a74 74 0 0 0-58.2 0c-7 3.3-13 7-18.6 12.2h-3c2.2-6.5 11.6-10.7 17.5-13.8a78 78 0 0 1 79.2 7.2"/><path fill="#000100" d="M861.4 293.5q9.2 5.3 12.2 15.4 1 5.9.8 11.7l.1 2.7.1 5.7.2 8.7.2 5.5v8.8c-1 1-1 1-4 1.1-3-.1-3-.1-4-1.1l-.2-8.2-.1-5-.1-8-.1-7.8v-2.4a23 23 0 0 0-6-16.5c-4.9-4.1-10.4-3.6-16.5-3.1-5.8 2-9.3 5.7-12.1 11.2a38 38 0 0 0-1.3 11.3v2.5l-.2 7.8-.1 7.7v4.9c-.2 5.5-.2 5.5-1.3 6.6h-6c-1-1-1-1-1.1-3.3v-35.1l.1-20.6c2.4-.6 2.4-.6 5-1 2.6 2.6 2.5 4.5 3 8l1.5-1.5 2.1-1.9 2-1.9c7-5 18-5.6 25.8-2.2"/><path d="M1169.4 293.6c6.4 3.8 10 9 12 16 1.2 6.9 1 13.8.9 20.8v8.1l-.1 5.2v2.5c0 5.7 0 5.7-1.2 6.8-2.4.2-2.4.2-5 0-2-2-2-2-2.2-4.7V345l.1-3.7.2-7.8c.4-15.5.4-15.5-5.1-29.4-5.2-3.8-10.8-3.7-17-3-6 2-9.3 5.9-12.2 11.3-2.4 8.5-1.9 17.5-1.8 26.2v7.6l.1 3.4c-.1 2.5-.1 2.5-1.1 3.5h-6c-1-1-1-1-1.1-3.3v-35.1l.1-20.6c2.4-.6 2.4-.6 5-1 2.6 2.6 2.5 4.5 3 8l1.5-1.5 2.1-1.9 2-1.9c7-5.1 18-5.6 25.8-2.1"/><path fill="#363d5a" d="m199 182 3 1.1c28.6 12.1 40.4 35.3 51.4 62.5l3.8 9.6a695 695 0 0 0 12 28.3l3.3 7.3 2.1 4.8 1 2.2c1.3 3.3 1.3 3.3 3.4 6.2 2.2.4 2.2.4 4.8.6l2.6.2c3.6-1.1 4.5-3 6.3-6.2q4-8.2 7.4-16.5L307 266l1.5-3.6 4.3-10 1.3-3.2 6.3-15.1c10.2-24.6 23.7-41.4 48.6-52.1a73 73 0 0 1 28.2-4.4h3.3A79 79 0 0 1 449 195l4 5c-4-.6-6.6-2.8-9.9-5.2A90 90 0 0 0 422 184l-2.4-1.1c-18.3-6.4-40.6-2.2-57.4 5.8-6.1 3-11.2 6.7-16.2 11.3l-2.1 1.9A79 79 0 0 0 326 230l-1.4 3.2-3.8 8.8-4.5 10.6-7.7 18-1 2.2-5.6 13.4-1.4 3.2-2.4 5.8A25 25 0 0 1 290 307c-3 .7-3 .7-6 .6h-3.2c-4-.9-4.6-2.1-6.8-5.6l-5.1-10.8-1.5-3.2a834 834 0 0 1-10.5-24.5L247 240l-1.6-3.9c-10.2-23.5-21.5-39.6-45.4-50.2l-3.4-1.6a77 77 0 0 0-74.8 13.4L119 200l-3-1a92 92 0 0 1 27-17l3.2-1.4A81 81 0 0 1 199 182"/><path d="M957 292.9c3 .1 3 .1 4 1.1l.2 8.6.1 5.4.1 8.5.1 8.2v2.5c.1 5 .8 8.5 3.5 12.8 5.2 4.7 8.4 5.3 15.2 5.2 5-.4 7.7-2 11-5.6 4.5-6.5 5-12.6 5-20.4l.2-4.4.2-7 .1-6.7V299c.2-4.9.2-4.9 1.3-6h5c1 1 1 1 1.1 3.3v35.1l-.1 20.6-5 1c-2-2-1.7-6.3-2-9l-1 1.4c-3.4 4.3-6.5 7.5-12 8.6-9.3.8-15.2 0-23.1-5-5.5-5-7.9-12.4-8.3-19.7v-21.6c.2-14.7.2-14.7 4.4-14.8"/><path fill="#6a6c74" d="M106 202c12.8-.8 12.8-.8 16.9 1.8l2.1 3.2 4.3 5.8 3.7 5.2 2.4-1.6 3.6-2.4 2.2-1.5 7.8-4.5 2.3-1.3a55 55 0 0 1 36.9-1l4.8 2.3 2.8 1.3c14.7 7.2 21.7 21.7 27.7 36.2l2.6 6.3 2.8 6.8 11.5 27.2 3.6 8.2 2.2 5.2 1 2.3c5.4 12.7 10.2 21 22.8 27.5 4.5 1.5 9 1.3 13.6 1.3l3 .1a31 31 0 0 0 23.4-9.3c5.6-5.9 9.1-13 12.2-20.4l1.1-2.6 2.4-5.6 3.8-8.8 10.7-25.5 6.6-15.8a95 95 0 0 1 10.3-19l1.2-1.8c4.5-6.1 11-12.2 18.7-13.6-1.2 3.6-2 3.8-5 5.7-16.3 10.6-21.6 28.4-28.8 45.7l-7.4 17.2-1 2.4-4.4 10a170 170 0 0 0-8.8 23c-1.9 6-6 9.6-10.8 13.2l-1.7 1.3c-8.3 6.3-15.6 7-26 6.5h-3.4a35 35 0 0 1-25.8-11.5c-6.8-9-10.8-20.7-15-31q-4.1-10.7-8.9-21-5.1-11.3-9.7-23A112 112 0 0 0 208 223l-1.2-1.8c-3.5-4.8-8.6-7.4-13.8-10.2l-3.2-1.8c-6-2.6-12.1-2.4-18.4-2.3H164q-3.1.1-6.1 1.1l-1 2c-1.7.4-1.7.4-4 .7a36 36 0 0 0-16.7 9.7c-2.3 1.6-2.3 1.6-4.6 1.4-3.3-1-5.2-2.5-7.8-4.8q-7.5-6.4-15.7-12.3L106 203z"/><path fill="#00052b" d="M45 101h483l1 3H45z"/><path fill="#000534" d="M529 393c-1.7 1.7-4 1.1-6.3 1.1H181.8L46 394l-1-2 137.8-.4h2l66-.1h2.2l70.1-.2 82.2-.2h2l30.2-.1 34.4-.1h17.6l16-.1h16.1c5.2 0 5.2 0 7.4 2.2"/><path d="m1061 279 5 1v13h3.9l5-.1h5l2.2-.1c1.9.2 1.9.2 3.9 2.2l-1 6h-19l.3 15.1v5.1l.2 7.4v2.3c.1 4.6.7 7.5 3.5 11.1 3.2 2.3 6.4 2.4 10.3 2.6l3.2.3 2.5.1 1 7c-1.9 1.9-5 1.3-7.6 1.3-6 0-10.8-.3-15.4-4.3-5.5-6.6-6.2-12.7-6.1-21.1v-9.7l.1-17.2h-5.4l-3.1.1c-2.5-.1-2.5-.1-3.5-1.1v-6c1-1 1-1 3.5-1.1h6.1l2.4.1.1-2.6.3-3.3.2-3.3c.4-2.8.4-2.8 2.4-4.8"/><path fill="#a2a7bd" d="M173.1 175.7h3A61 61 0 0 1 196 179l3 1a83 83 0 0 1 32 21l2 1.9c12.3 12.7 18.5 32.7 24.9 48.8l6.1 14.6 2.3 5.1 3.5 8 3.4 7.8 1 2.4q2.9 6 4.8 12.4c3.7.6 6.5.4 10-1a39 39 0 0 0 3.4-6.6l.9-2 1.8-4.3 3.6-8 4.5-10.4 1-2.2 12.8-29.7c10.4-24.7 22.8-45.3 48.5-56.4a85 85 0 0 1 62.6-.5q10.5 4.6 19.9 11.1l-2 2-1.7-1.3c-6.1-4.2-12.2-7-19.1-9.6l-2.5-.9a82 82 0 0 0-59.9 3.5c-26.5 12.7-36.1 35.6-46.8 61.2q-7.1 17-14.5 33.7l-4 9.2-2.1 4.9-1 2.2c-2.7 6.3-2.7 6.3-5.4 8.1-2.3.5-2.3.5-5 .6h-2.5c-3.6-1-4.7-3.5-6.5-6.6l-3.5-7.8-1-2.3-3-7-11.3-27-7-16.8-1.6-3.6c-9.7-22.9-21.5-39.8-44.9-50a82 82 0 0 0-58.2-2L141 184l-1.9.8c-7.3 3.3-14 7-20.1 12.2l-2-2c7.4-5.3 14.6-10.3 23-14l2-.9a81 81 0 0 1 31.1-4.4"/><path d="M1026 269h6c1.7 1.7 1.1 4 1.1 6.3v71.4c0 5.2 0 5.2-1.1 6.3h-6a69 69 0 0 1-1.1-13.6V276c0-4.8 0-4.8 1.1-7"/><path fill="#373f5b" d="M216.8 196.4a82 82 0 0 1 24.4 33l1.4 3.1 12.3 29.5q3.9 9.6 8.3 18.9l.8 2.1-1 2h-2l-3.2-7.2-.9-2-6.5-15.3-7.8-18.8-2-4.6c-8.5-20.6-19.3-37.4-40.8-46.3a74 74 0 0 0-58.2 0c-7 3.3-13 7-18.6 12.2h-3c2.2-6.5 11.6-10.7 17.5-13.8a78 78 0 0 1 79.3 7.2"/><path d="M1105.6 292.8c2.4.2 2.4.2 3.4 1.2l.1 5.4v50.2c-.1 2.4-.1 2.4-1.1 3.4h-6c-1.7-1.7-1.1-4-1.1-6.3v-19l-.1-10.3v-20c.3-3.5 1.3-4.3 4.8-4.6"/><path fill="#595b62" d="M106 202c12.8-.8 12.8-.8 16.9 1.8l2.1 3.2 4.3 5.8 3.7 5.2 2.4-1.6 3.6-2.4 2.2-1.5 7.8-4.5 2.3-1.3a55 55 0 0 1 36.9-1l4.8 2.3 2.8 1.3A41 41 0 0 1 213 225c-.4 2.2-.4 2.2-1 4l-1.4-2.2A42 42 0 0 0 195 212l-2.1-1.2c-7-3.8-13.7-4-21.5-4H164q-3.1.2-6.1 1.2l-1 2c-1.7.4-1.7.4-4 .7a36 36 0 0 0-16.7 9.7c-2.3 1.6-2.3 1.6-4.6 1.4-3.3-1-5.2-2.5-7.8-4.8q-7.5-6.4-15.7-12.3L106 203z"/><path fill="#c6c8ce" d="m134 283-4 10a69 69 0 0 0 42.4 15.6l3.4.1 8.2.3c-6.8 4.5-18.5 2.8-26.3 1.6A74 74 0 0 1 130 297l-3-2a60 60 0 0 0 22.9 14.7c3.1 1.3 3.1 1.3 6.1 3.3-5.3-.5-9.2-1.8-14-4.2l-1.8-1a52 52 0 0 1-9.6-6.3c-2.8-2.2-3.3-2.5-7-2.6a81 81 0 0 0-10.5 4.3c-2.7 1-4.5.8-7.1-.2 4.7-5.2 10.3-9 16-13l2.9-2 2.7-2 2.4-1.7c2-1.3 2-1.3 4-1.3"/><path fill="#c5c7cd" d="M435 283c4.1 1.4 7.1 3.4 10.6 6.1q7.8 6 16.2 11.3l2.2 1.6v2c-4.6 1.5-7.5-.3-11.6-2.4l-2-1-7.4-3.6v-2q-5.8 3.1-11.1 7a54 54 0 0 1-32.2 9H391v-1l3.2-.3c15-1.5 32.8-4.1 43.7-15.8l1.1-1.9c-.7-2.7-.7-2.7-2-5a46 46 0 0 0-8.6 5.4q-7.4 5.5-16.4 7.6c-2.3-.4-2.3-.4-4-1l3.1-1.2A68 68 0 0 0 435 283"/><path fill="#3b415b" d="M215 276h2c-.7 8-6.2 12.6-12 17.8-12 9.6-26 12.4-41 11.2a71 71 0 0 1-32-15l1-4 1.4 1.1A59 59 0 0 0 178 301c12.5-1.6 24-7 32-17l4-6.5z"/><path fill="#393f58" d="M352 276a116 116 0 0 1 8.3 9 49 49 0 0 0 28.7 16c7.8.4 15.6.7 23-2l3-1a50 50 0 0 0 17.2-9.5c1.8-1.5 1.8-1.5 4.8-2.5-.3 3.5-.7 4.7-3.3 7.1-6.7 4.3-13 7.7-20.7 9.9l-2.2.7a55 55 0 0 1-38.3-4.2A62 62 0 0 1 352 281c-.2-2.7-.2-2.7 0-5"/><path fill="#2b2b32" d="M350 282h2c1.2 1.5 1.2 1.5 2.5 3.5A51 51 0 0 0 384 305c18.3 2.3 33.4 0 48.7-10.4a46 46 0 0 1 6.3-3.6c0 3 0 3-1.3 4.4a68 68 0 0 1-51.5 13.2A62 62 0 0 1 352 289c-2-3-2-3-2-7"/><path fill="#3b415a" d="m217 282 2 1c-1 6.7-7.3 11.9-12.4 15.8a70 70 0 0 1-50.2 9.6A72 72 0 0 1 129 293l1-2a34 34 0 0 1 9.5 5.3c14 9.8 29 10.7 45.7 8.4A50 50 0 0 0 215 285z"/><path fill="#393836" d="m349 289 2.9 2.6A72 72 0 0 0 409 310q6.8-1.2 13-4l2.7-1.2q7.3-3.4 13.6-8.7c1.7-1.1 1.7-1.1 4.7-1.1v2l-6 4.4-1.8 1.2a68 68 0 0 1-50.4 11A73 73 0 0 1 354 297l-3-1c-1.6-2.6-2-3.9-2-7"/><path fill="#222324" d="m219 289 2 2-5 5-1.5 1.6a66 66 0 0 1-47 16.9c-14.9-.5-29.8-7-40.5-17.5v-2q5.1 2.5 9.7 5.8a70 70 0 0 0 50.5 8.8q5.7-1.6 10.8-4.6l3.1-1.6A64 64 0 0 0 219 289"/><path fill="#b7b7b7" d="M396.6 179.8h3.2c19.2 0 35.4 7.2 50.2 19.2l1-1-4-5c4.3.5 6.1 3 9 6l3 1-5-7c3.9 1 4.7 1.3 7.3 4l1.5 1.5c1.2 1.5 1.2 1.5 1.2 3.5l-2.8.4-3.6.5-3.6.6c-3 .3-3 .3-5 1.5l-.6-2.2c-1.8-3.6-4.2-5.2-7.5-7.2l-1.9-1.2c-7-4.2-14.3-7-22-9.4l-3.1-1.2c-5.9-1.2-11.7-1-17.7-.8l-7.3.1h-3.3c-2.6-.1-2.6-.1-4.6-2.1 5.1-1.5 10.3-1.2 15.6-1.2"/><path fill="#686973" d="M213 226c2.9 3.4 4.9 6.5 6.6 10.6l1.4 3.3 1.4 3.5 1.6 3.8 2.5 5.8q4.1 9.9 8.4 19.7 6.5 14.6 12.6 29.4 3 7 6.5 13.9l1 2c-1.8-.2-1.8-.2-4-1-1.5-2.2-1.5-2.2-2.9-5.2l-1.5-3.3q-4-9-7.6-18-4.9-12.2-10.5-24.2-4-9-7.8-18.4l-2.3-5.8-2.2-5.2c-1.1-2.8-1.1-2.8-2.4-5-.8-1.9-.8-1.9-.8-5.9"/><path fill="#b6b6ba" d="M171.2 179.6h3.3c7.2 0 13.6 1.1 20.5 3.4v3l-2.4-.7a81 81 0 0 0-61.9 8.6q-3.6 2.5-6.8 5.7c-3.1 2.7-4.5 3.4-8.6 3.7A92 92 0 0 1 105 202v-2l6.5-1.4a23 23 0 0 0 6.5-2.6l-1 3q4.5-2.1 8.4-5.3A89 89 0 0 1 144 184l3-1.3a71 71 0 0 1 24.2-3.1"/><path fill="#60626b" d="m228 309 1 3c-17 13-17 13-21 13l-1 3-5.6 1.5q-5 1.2-9.8 2.8c-19.5 5.2-41 2-58.6-7.3v-2q4.3 1.4 8.5 3c21 8 44 7 64.5-2a87 87 0 0 0 22-15"/><path fill="#2e2f2e" d="M310 274c2.2 6.5-3.3 14.6-6.2 20.5l-2.3 4.6-1.1 2.2a21 21 0 0 1-8.4 9.7c-3.6.5-3.6.5-7.6.4h-3.9c-5-.5-5-.5-7.5-2.4-2.4-3.5-4.1-7.2-6-11l-1.5-3c-3.6-7.6-3.6-7.6-2.5-11q5.4 8.4 9.6 17.3c1.3 2.6 2.3 4.6 4.4 6.7 3.2.4 3.2.4 6.8.4l3.7.2c4.5-.8 5.6-2.2 8.5-5.6 1.7-3 1.7-3 3-6.3l1.6-3.6 1.6-3.8 3.2-7.4 1.4-3.3c1.2-2.6 1.2-2.6 3.2-4.6"/><path fill="#afb1bb" d="M269 266h2l1 2 5.8 12.3L285 295h2l4-10h2a25 25 0 0 1-6 15h-6a300 300 0 0 1-8.3-17.6l-1-2.4c-2.2-5-3.1-8.6-2.7-14"/><path fill="#58595a" d="M458.7 202h4.3a108 108 0 0 1-12 10.6l-1.7 1.4c-10.4 8-10.4 8-13.6 7.9-1.7-.9-1.7-.9-3.7-2.9l1-3 4 3 .8-1.7q2.9-4.9 6.6-9.2c1.8-2.1 1.8-2.1 2.6-5.1h4c2.9-1 4.7-1.1 7.7-1"/><path fill="#62646e" d="M321 308c1.2 3.5 1 4-.6 7.6-2.7 4-6 6.8-9.7 9.7l-1.6 1.3c-8.4 6.2-15.7 6.9-26 6.4h-3.4a35 35 0 0 1-22.4-8.2l-2-2.1-1.9-2.1-1.4-1.6 3-1 1.7 1.6 2.2 2.1 2.3 2.2a33 33 0 0 0 22.8 6.6h2.8c9.6 0 16.4-3.1 23.3-9.6q3.7-3.7 6.6-8.1 2-2.6 4.3-4.8"/><path fill="#acb0c3" d="M383 182c-2.4 2.4-4.1 2.8-7.4 3.8-11 3.5-20 8.5-28.6 16.2l-2 1.7c-9.4 8.8-14.2 20.6-19 32.3l-2-1a62 62 0 0 1 16-30l2-2.3c7.6-8 16.3-13.1 26.3-17.6l2-1A25 25 0 0 1 383 182"/><path fill="#242322" d="M441.4 195.1c5.2 3.8 5.2 3.8 7.6 5.9v2a71 71 0 0 1-9-5.3c-19.8-12.5-40.1-14-63-11.7l1-2c21.5-7 45-1 63.4 11.1"/><path fill="#494e63" d="M179 175v1l-3.4.1c-13.5.6-27.4 1.3-39.6 7.9l-2.6 1.3A80 80 0 0 0 113 200c-2.1-.4-2.1-.4-4-1 8-8.2 16.6-14 27-19l2-1c13.6-6.1 26.5-5.3 41-4"/><path fill="#4b5065" d="M457.7 196.6c1.3 1.4 1.3 1.4 1.3 3.4-3.4-.6-5-1.7-7.4-4a83 83 0 0 0-53.2-19.6l-3-.1-7.4-.3v-1c27.7-1.8 48.4 2.7 69.7 21.6"/><path fill="#afb0b8" d="M173.3 175.8h3A66 66 0 0 1 194 178l-2 2-5.5-.7A85 85 0 0 0 141 184l-1.9.8c-7.3 3.3-14 7-20.1 12.2l-2-2c7.4-5.3 14.6-10.3 23-14l2-.9a80 80 0 0 1 31.2-4.4"/><path fill="#5f616b" d="m347 315 4 2.2 2.4 1.4 4.8 2.7c17.7 10.4 38.8 11.4 58.8 8.7-2 3-2 3-4.4 3.7-23.7 2.2-45.2-1.2-64.6-15.7z"/><path fill="#252526" d="M171.7 181.7h2.7c6.3 0 6.3 0 8.6 2.3h-3.8c-20.8.7-40.4 4.3-56.2 19h-3c2.2-6.5 11.6-10.7 17.5-13.8 11.4-5 21.8-7.4 34.2-7.5"/><path fill="#a1a7b8" d="m134 283 3 2v2l1.7.8q5 2.7 9.8 5.8a45 45 0 0 0 24 4.5h2.6q5.2.2 10.3-.7c2.6-.4 2.6-.4 5.6 1.6a58 58 0 0 1-43.8-2.4q-7.6-4.5-14.2-10.6z"/><path fill="#aaadba" d="M248 242c2.4 2.4 3.2 4.6 4.5 7.7l1.4 3.6 1.6 3.9 4 10 5.6 12.7 1.4 3.2 2.7 6 1.2 2.6 1.1 2.3.5 2-2 3c-10.2-23.4-10.2-23.4-13.7-32l-3.4-7.6-1.1-2.4-2.3-4.9-1-2.2-1-2c-.6-2.3-.3-3.6.5-5.9"/><path fill="#292929" d="M180 178v1h-1.7c-20.2 1.2-40.8 4.9-56.5 18.8L119 200l-3-1c18.9-17.3 39-21.8 64-21"/><path d="M1108 272c3 2 3 2 3.9 4.9.1 3.1.1 3.1-1 5.4-2.4 2.1-3.8 2.5-6.9 2.7-2.7-1-3.7-1.4-5-4-.4-5.3-.4-5.3 1.1-7.9 2.8-1.6 4.8-1.4 7.9-1.1"/><path fill="#394059" d="m461 304 2 1-1.3 1.2c-1.8 1.7-1.8 1.7-2.8 4A48 48 0 0 1 430 328l-2.6 1.1c-3 1-5.3 1-8.4.9 3.2-2.1 6.2-3.2 9.8-4.6A94 94 0 0 0 461 304"/><path fill="#2e2f31" d="M389 178c22.9-.6 22.9-.6 33 3l3.6 1.3A56 56 0 0 1 453 200c-4-.6-6.6-2.8-9.9-5.2A90 90 0 0 0 422 184l-2.5-1c-9.4-3.5-20.6-3.4-30.5-4z"/><path fill="#babbc4" d="m130 294 2.7 1.6a78 78 0 0 0 39.7 13l3.4.1 8.2.3c-6.8 4.5-18.5 2.8-26.3 1.6A64 64 0 0 1 130 297z"/><path fill="#50535e" d="M397.6 203.4h3.2c12 .3 21.9 3.9 31.2 11.6l-2 2-7-4v-2l-4 1v-2a69 69 0 0 0-41-1l-1-2a52 52 0 0 1 20.6-3.6"/><path fill="#232222" d="M443 295v2l-6 4.4-1.8 1.2c-10.9 7.3-21 11-34.3 10.6h-3l-6.9-.2v-1l3.5-.3c16.2-1.5 31-5 43.8-15.6 1.7-1.1 1.7-1.1 4.7-1.1"/><path fill="#393d4f" d="m437 291 3 1a29 29 0 0 1-10.7 9.1l-1.7 1c-9 5-16.4 6.3-26.7 5.6l-3.2-.2-7.7-.5v-1h3.9c16-.4 31.2-3.1 43.1-15"/><path fill="#232323" d="M127 295q5.1 2.5 9.8 5.8c10.6 6.8 23 10 35.5 10.8l3.8.2 2.9.2v1c-24.5 1-24.5 1-35-5l-4.2-1.9q-7-3.6-12.8-9.1z"/><path fill="#323337" d="M269 289c3 1 3 1 4.8 4.2l1.9 3.9 1 2 2.3 4.9q5 .9 10 0c2.5-2.3 3.7-5 5-8l1.3-3 .7-2h2q-.7 7.6-5 14c-4.7 3.1-9.5 2.7-15 2-2.4-1.8-2.4-1.8-4-5l-1.3-2.7c-3.7-7.7-3.7-7.7-3.7-10.3"/><path fill="#494d5a" d="M133 323q4.3 1.4 8.5 3l2.7 1 2.5 1c9.6 3 19 3.4 29 3.6l3.9.1 9.4.3v1a87 87 0 0 1-56-8z"/><path fill="#9a9ba2" d="m448 192-2 2-1.7-1.3c-6.1-4.2-12.2-7-19.1-9.6l-2.5-.9a75 75 0 0 0-22.6-3.8h-2.6l-6.5-.4v-1c21-2.1 40 2.1 57 15"/><path fill="#a7adc2" d="M397.8 170.8h8.1c2.1.2 2.1.2 5.1 2.2h-2c-23 .5-23 .5-45 7.3-2.4.8-3.6.5-6-.3 12.9-7 25.3-9.2 39.8-9.2"/><path fill="#ababaa" d="m127 295 5 5a66 66 0 0 0 17.9 9.7c3.1 1.3 3.1 1.3 6.1 3.3-5.3-.5-9.2-1.8-14-4.2l-1.8-1a52 52 0 0 1-9.6-6.3c-2.8-2.2-3.3-2.5-7-2.6a81 81 0 0 0-10.5 4.3c-2.7 1-4.5.8-7.1-.2 2.4-2.4 3.7-2.3 7-3q4.3-1.9 8.5-4c2.5-1 2.5-1 5.5-1"/><path fill="#393f54" d="M268 275h3l10 24 8 1v2h-10l-3.8-8-1-2.3-3.2-6.7-1-2c-1.2-2.9-2-4.8-2-8"/><path fill="#abacb4" d="m170.5 179.8 3.4-.1c7.5 0 14 1 21.1 3.3v3l-2.2-.7A97 97 0 0 0 165 183h-3l-2.8.2c-2.2-.2-2.2-.2-4.2-2.2 5-1.7 10.2-1.2 15.5-1.2"/><path fill="#a5aac2" d="M192 179c6 .5 10.6 2.4 16 5l2 .9c8.1 3.6 15 9.7 21 16.1l-1 2-1.8-1.7a80 80 0 0 0-30-18.3c-5.1-1.8-5.1-1.8-6.2-4"/><path fill="#2b2a2a" d="M262 284a29 29 0 0 1 8 12.6l2.1 4.5.9 2c1.1 2.1 2.2 3.4 4 4.9 3.2.6 3.2.6 6.7.7l3.6.2 2.7.1v1l-6.2.6-3.6.4c-3.2 0-4.6 0-7.2-2-4.5-6.5-11-17-11-25"/><path fill="#9196a9" d="m384.3 297.4 2.7.6 5.7.1h10l8.3-.1-1 3c-10.5 2-21 2-31-2 3-2 3-2 5.3-1.6"/><path fill="#a5aabd" d="m354 274 1.7 2.2 2.3 2.8 2 2.5a44 44 0 0 0 15.5 12.2q3.5 1.9 6.5 4.3c-9.8-.6-16.4-5.8-23-12.7-2.6-3-4.4-5.7-6-9.3z"/><path fill="#a3a5ae" d="M348 278c.7 2.2 1 4 1 6.3 0 3.5 1 6.4 2 9.7h-3l-2-3-7 17h-1c-.6-6 1.5-10.3 3.9-15.6l2.2-5 1-2.3z"/><path fill="#a6abbc" d="m214 274 3 2h-2l-.7 2.2c-3.6 8-11.5 15-19.3 18.8q-3.4 1-7 1c2.3-2.6 4.5-3.8 7.7-5.2A42 42 0 0 0 214 274"/><path fill="#43485f" d="m394 178.4 2.7.1 6.3.5v1l-3.5.1c-11 .4-20.9 1.6-31 5.7L365 187l-3-2 6-2.4 3.3-1.3a53 53 0 0 1 22.8-3"/><path fill="#5e606a" d="M377 208c-1.2 3.6-2 3.8-5 5.7a47 47 0 0 0-18 20.3c-.7-1.7-.7-1.7-1-4 1.6-3.3 3.8-6 6-9l1.8-2.6c3.7-4 10.5-10.4 16.2-10.4"/><path fill="#3e3e41" d="M133 183c-1.3 3.8-2.6 4.2-6 6.3a63 63 0 0 0-12.2 9.5c-1.8 1.2-1.8 1.2-4 .9l-1.8-.7c16.6-16 16.6-16 24-16"/><path fill="#5c5f69" d="M184 205c12.6 3.7 21.6 9 29 20-.4 2.2-.4 2.2-1 4l-1.4-2.2c-7.2-10.5-15-15-26.6-19.8z"/><path fill="#36363c" d="M435 183a20 20 0 0 1 11.4 4.7l2.9 2.2q5 3.8 9.7 8.1v2c-3.4-.6-5-1.7-7.5-4.1-4.3-4-9-6.7-14.2-9.4L435 185z"/><path fill="#9da2b4" d="m134 283 3 2v2l1.7.8q5 2.7 9.8 5.8A35 35 0 0 0 163 298c-3 1.8-4.7 2.3-8.1 1.5A53 53 0 0 1 133 286z"/><path fill="#0a0d1a" d="M599 376a18 18 0 0 1 4.3 10.1l.6 3.2.1 2.7-2 2c-2.1-.4-2.1-.4-4-1v-16z"/><path fill="#50545f" d="M417 331c-4.6 4.7-13.4 3.2-19.6 3.2h-8.9c-2.6-.2-4.3-.9-6.5-2.2h2.2l10-.4 3.4-.2h3.3l3.1-.2c3-.2 3-.2 6.2-.7 2.7-.5 4.3-.4 6.8.5"/><path fill="#585a65" d="M105 302c3.6.6 4.9 1.7 7 4.6 5.8 6.8 13 11.6 21 15.4-1.7.7-1.7.7-4 1-8-3.7-14.7-10-21-16l-1.8-1.6C105 304 105 304 105 302"/><path fill="#bebebe" d="M157 182c-2.6 2.6-5.5 3.2-9 4.3q-8.8 2.7-17 7.7l-2 1-2-1c7-7.8 19.6-12.5 30-12"/><path fill="#3e4358" d="M350 282h2l2.6 3.6c3.4 4.8 7.6 8 12.4 11.4l-2 3c-11.8-8.6-11.8-8.6-15-14z"/><path fill="#292a33" d="M169.2 177.8h3.2l7.6.2v1l-1.9.1-8.5.7-2.9.2a61 61 0 0 0-16.4 3.5 14 14 0 0 1-7.3-.5c7.8-5.2 17-5.4 26.2-5.2"/><path fill="#aeb2c1" d="m434 284 3 2-8 6-2.8 2.1c-4.7 2.8-11 6.4-16.5 5.5l-1.7-.6 3.1-1.2A71 71 0 0 0 434 284"/><path fill="#afaeb0" d="m371 303 2 .8c9.5 3.6 19 4.4 29 5.2v1a55 55 0 0 1-33-5z"/><path fill="#454a61" d="M202 183v3l-1.7-.6A115 115 0 0 0 166 180v-1a80 80 0 0 1 36 4"/><path fill="#313752" d="M169.3 172.7h4.2A70 70 0 0 1 192 175l1 2c-7.3.1-7.3.1-10.7-.5q-6-.9-12.2-1l-2.3-.2-5.8-.3c2.5-2.5 3.9-2.3 7.3-2.3"/><path fill="#343b52" d="M380 186q-4.8 2.4-9.8 4.4-5.4 2-10.3 5L357 197l-2-1c3-3.3 6-5.2 10-7.2l3.1-1.5c4.5-2 7-2.5 11.9-1.3"/><path fill="#343b55" d="M321 308c.9 2.4 1.2 3.6.2 6-2.7 4-5.1 7.2-9.2 10l-2-1a65 65 0 0 1 11-15"/><path fill="#444" d="M190 310c-1 2-1 2-2.7 2.6-6 1.4-11.7 1.6-17.9 1.5h-2.7l-6.7-.1v-1l5-1v-1l9.7-.5 2.8-.1 5.1-.3z"/><path fill="#bebebe" d="M271 297c2.2 2 3.1 3.3 4.3 6.1 3.4 3.7 5 3.4 10 3.8l6.7.1-1 2c-12.4 1-12.4 1-16-1.1a17 17 0 0 1-4-10.9"/><path fill="#bcbdc1" d="M301 286h2a37 37 0 0 1-4.4 13.3l-.9 1.8a15 15 0 0 1-5.7 6.9l-2-2 1.8-1.5c2.9-3.3 4.3-6.7 6-10.7l1-2.3z"/><path fill="#63656f" d="M213 226a42 42 0 0 1 7.3 12l1.5 3.5a22 22 0 0 1 1.2 9.5c-3-3-4-6.4-5.6-10.2l-1-2.3c-1.6-4.2-2.9-8-3.4-12.5"/><path fill="#39405b" d="M192 297h4l-1 3c-2.4 1.2-2.4 1.2-5.3 2.2l-3 1c-2.7.8-2.7.8-6.7.8v-2l-2-1 2.8-.6 3.6-.8 3.7-.8c2.8-.5 2.8-.5 3.9-1.8"/><path fill="#33384e" d="M317 256h2a52 52 0 0 1-4 12.3l-1 2-2 4.7h-3a103 103 0 0 1 8-19"/><path fill="#545763" d="M133 323q4.3 1.4 8.5 3 9.4 3.5 19.5 5v1c-10.1.7-19-2.3-28-7z"/><path fill="#969798" d="m443 295 2.7 1 3.5 1.5 3.5 1.4c3 1 5.1 1.1 8.3 1.1l3 2v2c-4.6 1.5-7.5-.3-11.6-2.4l-2-1-7.4-3.6z"/><path fill="#4d505d" d="m447 212 3 1-4.7 4-2.6 2.2a13 13 0 0 1-7.7 2.8c-1.8-1.4-1.8-1.4-3-3l1-3 4 3v-2l2.2-.2c3-.6 3-.6 5.4-3z"/><path fill="#383d58" d="m303 275 3 2-7 16c-2-4-2-4-.9-7.5l1.8-3.7.9-2z"/><path fill="#333957" d="M301 269h2c-.5 6.2-3.3 11.5-6 17h-1c-.7-6.8 1.7-11.2 5-17"/><path fill="#111110" d="m299 299 1 3a21 21 0 0 1-8 9c-3.5.3-3.5.3-7.2.2l-3.9-.1-2.9-.1v-1h2.5c6.5-.3 6.5-.3 12.5-2.7q3.4-3.9 6-8.3"/><path fill="#b9bbc4" d="m130 294 6.9 3.9 2 1c2.6 1.6 5 3 7.1 5.1v2a58 58 0 0 1-10.8-5.4l-3-1.8-2.2-1.8z"/><path fill="#9fa2ae" d="M223 286c3 3 4 6.6 5.6 10.4l1 2.4 1 2.3.8 2c.6 1.9.6 1.9.6 4.9h-2l-3.5-8.2-1-2.3A21 21 0 0 1 223 286"/><path fill="#323955" d="M361 183a41 41 0 0 1-7.4 6.1l-2.3 1.6a18 18 0 0 1-6.3 2.3c2.8-6.1 9-11 16-10"/><path fill="#adaeb0" d="M274 293c2.3 2 3 3.2 4.1 6.1 1.6 3 1.6 3 4 3.5q3.5.4 6.9.4v2a39 39 0 0 1-10 0c-3.5-3.6-4.5-7-5-12"/><path fill="#8f9090" d="M127 295v2a56 56 0 0 1-18 7l-3-2 1.7-.5a113 113 0 0 0 14.4-5.7c1.9-.8 1.9-.8 4.9-.8"/><path fill="#363e5a" d="M201 184c4.1.6 7.2 2 10.8 4l3 1.7 2.2 1.3v3l-6.9-3.3-2-1c-3.3-1.6-5-2.5-7.1-5.7"/><path fill="#858a9d" d="m194 178-2 2-5.6-.7q-6.4-.7-12.9-.9h-2.8l-6.7-.4v-1l8-.6 2.3-.1q9.8-.7 19.7 1.7"/><path fill="#4c4c57" d="M418 304v2a20 20 0 0 1-10.5 2l-3.1-.2-3.2-.2-3.3-.1-7.9-.5v-1h1.8l8-.4 2.7-.2h2.7l2.5-.2c2.3-.1 2.3-.1 4.3-.7s2-.5 6-.5"/><path fill="#42475f" d="M435 286h2c-.3 3.2-.6 4.6-3 6.8l-2.6 1.5-2.5 1.6-1.9 1.1v-5l6-4z"/><path fill="#b2b5c2" d="m351 271 3 1v4h-2l2 9-2-1v-2l-3-1c-.2-4 0-6.6 2-10"/><path fill="#9da0ae" d="M440 182c4.2 1.4 7.3 3.5 10.8 6.1l3 2.2 2.2 1.7-3 2-14-11z"/><path fill="#434655" d="M421 177c5.7.3 10.8 2.8 16 5-1.5 1.1-1.5 1.1-4 2a57 57 0 0 1-7.2-2.4l-2-.7-4.8-1.9z"/><path fill="#333956" d="M339 210c.7 1.7.7 1.7 1 4-1.1 2.6-1.1 2.6-2.8 5.3l-1.7 2.7-1.5 2h-2c.3-6 3.3-9.5 7-14"/><path fill="#5f616c" d="m345 250 2 1-7 16h-1c-.8-6.2 2-10.8 5-16z"/><path fill="#313646" d="M198 187v1q-10-1-20-3v-1a30 30 0 0 1 20 3"/><path fill="#303650" d="M202 300c-2.7 3.3-6 4.6-10 6-4 .2-4 .2-7 0 2.2-2.2 4-3 6.8-4.1l2.6-1a20 20 0 0 1 7.6-.9"/><path fill="#898fa3" d="M191 298c-5.6 3.7-11.5 3-18 2.6l-2-.2-5-.4v-1l3.4-.2 4.4-.2 2.2-.2c4-.2 4-.2 8-1 2.6-.5 4.5 0 7 .6"/><path fill="#252f51" d="m369 214 2 1-2.6 2.8-3.3 3.6-1.7 1.8-1.7 1.8-1.5 1.6C359 228 359 228 358 230h-2a24 24 0 0 1 7.6-10.8l1.6-1.5z"/><path fill="#abaaaa" d="m126 193 2 1v2c-3.8 3.7-7.3 6.8-12.6 7.4l-2.4-.4c2.4-2.8 5.2-4.3 8.3-6q2.7-1.6 4.7-4"/><path fill="#aaadbb" d="m120 187 3 1-2.3 1.9-3 2.5-3.1 2.4C112 197 112 197 110 199l-3-1 4.8-4.4 2.7-2.4c2.5-2.2 2.5-2.2 5.5-4.2"/><path fill="#5f616b" d="m437 322 1 2-6.1 3-3.5 1.7a19 19 0 0 1-9.4 1.3 50 50 0 0 1 10.7-5.1l2.1-.9z"/><path fill="#4e505d" d="M252 318c3.9.6 5.9 2.4 8.8 5l2.4 2c1.8 2 1.8 2 1.8 4-4-1.3-6.4-3-9.3-6l-2.1-2.2C252 319 252 319 252 318"/><path fill="#343741" d="M366 298q6.6 2.1 13 5l-1 3c-4.6-1.3-8.2-3-12-6z"/><path fill="#565965" d="m363 218 2 1-1.6 1.8A44 44 0 0 0 354 234c-.7-1.7-.7-1.7-1-4 1-2.3 1-2.3 2.7-4.6l1.6-2.3q2.4-3 5.7-5.1"/><path fill="#3d4562" d="M213 195c5 1.4 7 4 10 8l-2 2-9-8z"/><path fill="#353745" d="M257 271c3 1.5 3.4 3.5 4.7 6.4l1.4 3 .9 2.6-1 2h-2c-4.6-9.4-4.6-9.4-4-14"/><path fill="#3f4661" d="m347 195 2 2-8 8-3-2 5.3-5.4c1.7-1.6 1.7-1.6 3.7-2.6"/><path fill="#a5a7ae" d="m389.5 180.1 2.6.2 2.6.1 2.7.2 6.6.4v1l-10.4.6-3 .2-2.8.2-2.6.1c-2.2-.1-2.2-.1-4.2-2.1 3-.9 5.5-1 8.5-.9"/><path fill="#3e4561" d="M369 177c2 1 2 1 3 3l-5.3 2.1-3 1.2-2.7.7-3-2 5.4-2.6 3-1.4z"/><path fill="#5b5d68" d="m461 304 2 1-4.8 4.9-2.7 2.7C453 315 453 315 450 317l-3-1 2.8-2.4 3.6-3 1.9-1.6c3-2.4 3-2.4 5.7-5"/><path fill="#c3c2c3" d="M414 309v1c-4.8 1.2-9.4 1.1-14.3 1H391v-1l8.1-1 2.3-.4a34 34 0 0 1 12.6.4"/><path fill="#6e6f77" d="M338 263h1a28 28 0 0 1-5 16l-2-1z"/><path fill="#a7abc1" d="M223 201c3.4 1.4 5.4 3.3 7.8 6.1l1.8 2.2 1.4 1.7-2 3-3.4-4.2-1.9-2.4a35 35 0 0 1-3.7-6.4"/><path fill="#b3b8cd" d="m348 197 3 1-11 11-1-3z"/><path fill="#acacab" d="M431 193a20 20 0 0 1 10.8 5l3 2.3 2.2 1.7-1 4-1.6-2.3a30 30 0 0 0-8.1-6.4L431 194z"/><path fill="#a5a8b6" d="M454 193c3.9 1 4.7 1.3 7.3 4l1.5 1.5c1.2 1.5 1.2 1.5 1.2 3.5l-8-1 3-1z"/><path fill="#36363b" d="M133 183c-1.3 3.8-2.6 4.3-6 6.3l-2.7 1.6-2.3 1.1-2-1 3-1 .9-1.9c2-3.8 5-5.1 9.1-5.1"/><path fill="#b0b1b9" d="m207 297 4 1-5.3 3.5-3 2C200 305 200 305 197 305v-2l2-1 2.4-1.4 2.5-1.4c2-1 2-1 3.1-2.2"/><path fill="#343b55" d="m426 293 2 1c-1 3.5-2.1 4-5.4 5.8-4.6 1.5-4.6 1.5-7.6.2l2-.9c2.2-1 2.2-1 3-3.1 3-1.7 3-1.7 6-3"/><path fill="#3d445e" d="M253 260c3 3.4 4 6.7 5 11l-2 2c-4-7-4-7-3.7-11z"/><path fill="#3c4360" d="m317 242 3 2-4 10-3-1 1.4-4.4.8-2.4c.8-2.2.8-2.2 1.8-4.2"/><path fill="#3e4561" d="m320 223 3 1-1.2 4.4-.8 2.5c-1 2.1-1 2.1-3.1 2.9l-1.9.2 1.4-4.4.8-2.4c.8-2.2.8-2.2 1.8-4.2"/><path fill="#3b435f" d="m198.8 177.4 3 .9 2.2.7v3l-2-.6-2.7-.8-2.6-.8q-3.9-1.1-7.7-1.8c3.6-2.4 5.7-1.9 9.8-.6"/><path fill="#303755" d="m430 327 2 1a43 43 0 0 1-17 5c2-3 2-3 4.3-3.7l2.6-.4q4.2-.6 8.1-1.9"/><path fill="#292b32" d="m277 295 1.5 2c3.5 2.8 6 2.7 10.5 3v2h-10c-2-4-2-4-2-7"/><path fill="#363c56" d="M148 297c7.8 1.9 7.8 1.9 10 3v2c-4.7.3-7.2-.3-11-3z"/><path fill="#9fa5b7" d="m422 293 3 2-6.2 2.6-3.6 1.4c-3 1-4.3 1.2-7.2 0l6.8-3.1 2-1c1.8-.8 1.8-.8 5.2-1.9"/><path fill="#a1a0a2" d="m128 187 3 2-4.2 2.9-2.4 1.6a56 56 0 0 1-6.4 3.5v-3c2.2-1.8 2.2-1.8 5-3.7l2.8-1.9z"/><path fill="#a8acbb" d="m437 287 2 4-4.7 3.4-2.7 2c-2.3 1.4-4 2.2-6.6 2.6 2.6-2.8 5-5 8.3-7.1 3-1.7 3-1.7 3.7-4.9"/><path fill="#373d55" d="m217 282 2 1c-.6 3.9-2.4 6.2-5 9h-2c.6-4 2.7-6.7 5-10"/><path fill="#222324" d="M310 274c1 3 1 3 0 5.5l-1.4 2.7-1.5 2.7-1.1 2.1h-1c.5-5.6 1.7-8.6 5-13"/><path fill="#565a70" d="M189 306c-3.3 2.2-4 2.2-7.9 2l-2.8-.2-3-.2-3-.1-7.3-.5v-1l8.6-.6 2.5-.1a43 43 0 0 1 12.9.7"/><path fill="#313132" d="m349 289 3.3 2.8 1.9 1.6 4.8 4.6c-3 1-3 1-5.6-.2a10 10 0 0 1-4.4-5.8z"/><path fill="#5f6169" d="M420 208c4.7 2.1 8.6 4 12 8l-2 1q-3.6-1.8-7-4v-2l-3-1z"/><path fill="#bcbeca" d="M216 271c2.2 1.8 3 2.7 3.5 5.5l.2 2.7.2 2.7.1 2.1-1-3h-2v-6h-2z"/><path fill="#a6aabc" d="M318 222h2c-.6 4.9-2.7 8.7-5 13-1-2.6-1-3.7-.2-6.4l1.1-2.4 1.2-2.4z"/><path fill="#2e2d2b" d="m439 194 4.4 2.8 2.5 1.6c2.1 1.6 2.1 1.6 3.1 4.6q-4.3-2.2-8.2-4.6l-2.2-1.4-1.6-1z"/><path fill="#a7acc1" d="M186 173c10.6.8 10.6.8 15 3v1c-5.3-.4-10-1-15-3z"/><path fill="#282828" d="M357 298c4.2.7 7.4 2.9 11 5l-2 3-4-2.9-2.2-1.6C358 300 358 300 357 298"/><path fill="#a5aabf" d="m358 190 3 1q-4.7 4-10 7l-2-2 4.3-3 2.4-1.8z"/><path fill="#a0a1a7" d="m292 295 2 3-4 6-10-1v-1h1.9q3.6 0 7.1-1c2.2-2.9 2.2-2.9 3-6"/><path fill="#ababab" d="m296 297 2 4c-3.7 5.9-3.7 5.9-6 7l-2-2 1.9-1.7c2.2-2.4 3-4.3 4.1-7.3"/><path fill="#b6b8c2" d="m116 295 2 4c-6.6 3.1-6.6 3.1-10 2z"/><path fill="#a3a7ba" d="M131 288c8.4 6.2 8.4 6.2 12 10a21 21 0 0 1-8.7-4l-2.5-1.7-1.8-1.3z"/><path fill="#282b33" d="m599 103 4 1v5l-4 1z"/><path fill="#999eb3" d="m199 297 2 2-4.8 2.6-2.7 1.4c-2.5 1-2.5 1-5.5 0a61 61 0 0 1 7.2-4.1l2.2-1z"/><path fill="#979cb2" d="M259 257a13 13 0 0 1 3.6 6.6l.8 2.5.6 1.9-2 1-2-4.3-1.2-2.4c-.8-2.3-.8-2.3.2-5.3"/><path fill="#2d3654" d="M257 259c3.3 1.6 3.7 4.7 5 8v3h-2c-2.2-3.9-3.4-6.6-3-11"/><path fill="#9ea2b5" d="M248 242a13 13 0 0 1 3.6 6.6l.8 2.5.6 1.9h-3l-1.6-4.4-.8-2.4c-.6-2.2-.6-2.2.4-4.2"/><path fill="#adb1c0" d="M428 177c4.1.6 7.4 2 11 4l1 2a30 30 0 0 1-11-4z"/><path fill="#3f455f" d="m159.8 304.9 3 .6 2.2.5v1c-5.8 1-9.5 1-15-1 3.5-2.3 5.7-2 9.8-1.1"/><path fill="#b5b7c3" d="M260 273h2c3.3 7 3.3 7 2 11l-2-3.8-1.1-2.2c-.9-2-.9-2-.9-5m9-7h2c2.1 6.8 2.1 6.8 1 9h-2c-1.5-3-1-5.7-1-9"/><path fill="#a8acbd" d="M256 238c2.3 2.1 3.8 4 5 7v3c-3-1-3-1-4.2-3.3-.8-2.7-.8-2.7-.8-6.7"/><path fill="#2d344f" d="m362 190 2 1v2c-5.3 3.2-5.3 3.2-7 4l-2-1c2.3-2.3 4.3-4.2 7-6"/><path fill="#373836" d="M417 184v3l-13-2v-1c4.6-1 8.3-.8 13 0"/><path fill="#aeb3c7" d="M371 176a22 22 0 0 1-9 5c-2.2-.4-2.2-.4-4-1 8.3-4.6 8.3-4.6 13-4"/><path fill="#5f636f" d="M105 302c2.5.4 3.7.7 5.5 2.6l1.2 2 1.3 1.9 1 1.5c-4.3-.8-6.1-2.8-9-6z"/><path fill="#2d3551" d="m143 300 4.4 1.4 2.4.7c2.2.9 2.2.9 4.2 2.9-4.6.3-7.3-.2-11-3z"/><path fill="#3a4261" d="m226 193 7 6-3 2c-2-1.7-2-1.7-4-4z"/><path fill="#434344" d="M155 181a23 23 0 0 1-10 3l-2-2a17 17 0 0 1 12-1"/><path fill="#989dae" d="m386.7 298 2.4.5 1.9.5-2 2c-4.1-.3-6.5-.7-10-3 3.3-1.1 4.4-.9 7.7 0"/><path fill="#373a42" d="M296 291h2c-.5 3.7-.9 5.8-3 9h-2z"/><path fill="#b1b3c0" d="M296 286h2c-.6 4.1-2 7.3-4 11a7 7 0 0 1-.4-5.8z"/><path fill="#9c9fad" d="M270 282a30 30 0 0 1 4.4 9.4l.6 1.6-2 1-2-4.9-1.2-2.7c-.8-2.4-.8-2.4.2-4.4"/><path fill="#5e616b" d="M332 279h2l-1.4 4.4-.7 2.4c-.9 2.2-.9 2.2-2.9 4.2.8-7.6.8-7.6 3-11"/><path fill="#b5b9ce" d="M214 194c4.4.5 6.8 3.2 10 6l-2 2-4-3.4-2.2-2-1.8-1.6z"/><path fill="#9ca2ba" d="m355 187 2 2-10 6-1-2z"/><path fill="#9ba1b7" d="M211 182c4.8-.6 7.2 1.2 11 4l-3 2-4-2.4-2.2-1.4-1.8-1.2z"/><path fill="#35373e" d="m599 384 3 1v7h-3z"/><path fill="#a8aab4" d="m139 300 7 3v3a29 29 0 0 1-9-5z"/><path fill="#3c445d" d="M262 269c2.5 2.5 3 4.7 4 8l-3 1-3-8z"/><path fill="#565964" d="M206 219c3.3 1.4 5.2 2.8 7 6-.4 2.1-.4 2.1-1 4l-3-4.4-1.7-2.5C206 220 206 220 206 219"/><path fill="#404044" d="M453 194c2.6 1 3.8 1.7 5.3 4.1l.7 1.9c-2.9-.4-3.8-.8-5.7-3l-1.3-2z"/><path fill="#b1b0b0" d="m143.4 185.3 1.6.7c-2.5 2.5-4.7 3-8 4l-2-2c5.4-3 5.4-3 8.4-2.7"/><path fill="#2a2d37" d="M389 184v1l-12 1c2.3-4.7 7.8-2.6 12-2"/><path fill="#3c3c46" d="M142 180c-2.6 2.6-5.6 3.6-9 5l-1-3c3.4-2 6-2.2 10-2"/><path fill="#a2a6b8" d="m420 174 9 2v3l-10-3z"/><path fill="#63656f" d="m310 321 1 2c-1.7 2.5-1.7 2.5-4 5-2.7.3-2.7.3-5 0l2.3-1.8q3-2.5 5.7-5.2"/><path fill="#444a62" d="m206 288 2 1c-2.6 4.9-2.6 4.9-6 6l-1-3z"/><path fill="#a3a6ba" d="M301 276c.7 1.6.7 1.6 1 4-1.4 3.3-1.4 3.3-3 6h-2l1.4-4.4.8-2.5c.8-2.1.8-2.1 1.8-3.1"/><path fill="#6f6e6d" d="M447 203h2c-.4 2.8-.7 4.6-2.4 6.8-1.6 1.2-1.6 1.2-3.6 1.2z"/><path fill="#3c4460" d="M342 206c2.2.3 2.2.3 4 1l-5 6-2-4c1.3-1.6 1.3-1.6 3-3"/><path fill="#313856" d="M230 204c4.9 3.6 4.9 3.6 6 7-1.8-.2-1.8-.2-4-1-1.7-2.6-1.7-2.6-3-5z"/><path fill="#9d9d9d" d="m440 187 8 5-2 2-8-5z"/><path fill="#b6bccd" d="m370 187-3.9 2-2.2 1.1c-1.9.9-1.9.9-3.9.9v-2c5.9-3.3 5.9-3.3 10-2"/><path fill="#a0a0a0" d="M413 181c3.7.5 5.8.9 9 3-3 .8-4.5 1.2-7.3 0l-1.7-1z"/><path fill="#414862" d="M385 175v2l-10-1v-1c3.7-1 6.3-1 10 0"/><path fill="#63656c" d="m317 312 1 4c-2.4 2.8-2.4 2.8-5 5l-2-1z"/><path fill="#303853" d="m196 297-1 3c-2.4.6-2.4.6-5 1l-2-2c3-1.8 4.2-2 8-2"/><path fill="#424759" d="m299 284 2 2c-.3 3.3-.6 4.6-3 7-1-2.8-1-3.9 0-6.7z"/><path fill="#a7aabc" d="M307 249c.7 1.6.7 1.6 1 4-1.4 3.3-1.4 3.3-3 6-.7-1.6-.7-1.6-1-4 1.4-3.2 1.4-3.2 3-6"/><path fill="#424864" d="M312 241c2 4 2 4 1.3 6.2-1.3 1.8-1.3 1.8-4.3 2.8z"/><path fill="#969cb4" d="M251 238c2.7 2.7 3 5.4 4 9l-2 1-3-9z"/><path fill="#313953" d="M206 191c3 .8 3 .8 6 2l1 3c-2.4-.2-2.4-.2-5-1-1.3-2-1.3-2-2-4"/><path fill="#47474c" d="m122 188 1 2-2 2-1 2-6 1q3.7-4 8-7"/><path fill="#3b3c45" d="m435 183 6 1 1 4-7-3z"/><path fill="#383f58" d="M381 181v1l-10 2 1-3c3.5-1.2 5.5-.7 9 0"/><path fill="#50525e" d="M112 310c3.4.6 5.4 1.8 8 4l-1 3-3.5-3-2-1.6-1.5-1.4z"/><path fill="#333" d="M427 306a10 10 0 0 1-7 4v-3c3.6-2.1 3.6-2.1 7-1"/><path fill="#bfc1c8" d="m215 290 1 3-4 4-3-1z"/><path fill="#43485e" d="M215 276h2l-1 6-2 1-2-2z"/><path fill="#2b2e3c" d="M313 267c1.2 3.6.5 4.6-1 8h-3c1.8-5.7 1.8-5.7 4-8"/><path fill="#3f4763" d="M255 252c2.4 2.4 2.7 3.7 3 7l-2 2c-2.1-5.6-2.1-5.6-1-9"/><path fill="#70727a" d="M223 247c2.7 2.7 3 5.4 4 9h-3z"/><path fill="#5d5e67" d="m432 216 5 3 1-2 1 3-4 2c-1.5-1.3-1.5-1.3-3-3z"/><path fill="#5b5c65" d="M386 205v2c-4.4 2-4.4 2-7.3 1.6l-1.7-.6c6-3 6-3 9-3"/><path fill="#6b6e77" d="m427 326 2 1c-2.5 2.4-3.7 3-7.2 3.2l-2.8-.2c2.7-1.8 5-3 8-4"/><path fill="#646875" d="m337 304 .8 1.8c1.4 2.5 3 4.2 5.2 6.2-3-.6-4.4-1.3-7-3z"/><path fill="#3e3f50" d="m422 301 2 3-6 2-1-3z"/><path fill="#aeaeb5" d="M432 301c-2.3 2-2.3 2-5 4l-3-1c1.9-3.7 4.2-4.3 8-3"/><path fill="#383d4f" d="M290 294h2l-1 6-2 1-2-2z"/><path fill="#9ca2b4" d="m194 294 3 2c-4.4 2-4.4 2-7.3 1.6l-1.7-.6z"/><path fill="#2e3656" d="m251 247 3 1 1 7-2-1z"/><path fill="#2a3251" d="M335 217c1 3 1 3 0 5.2l-1 1.8h-2l1-6z"/><path fill="#303854" d="M226 208h3c2 3 2 3 1.6 5.2l-.6 1.8c-4-4.7-4-4.7-4-7"/><path fill="#363d59" d="M340 204c-1.2 2.5-2 4-4 6l-3-1c4.8-5 4.8-5 7-5"/><path fill="#9598a6" d="M449 188c2.9 1.3 4.9 2.7 7 5l-3 1-5-5z"/></svg>